<svg width="24" height="23" viewBox="0 0 24 23" fill="none" xmlns="http://www.w3.org/2000/svg">
<path d="M22.3125 6.90413H16.903C17.1714 6.76585 17.418 6.58875 17.6347 6.37855C18.2501 5.76319 18.5958 4.92859 18.5958 4.05835C18.5958 3.18811 18.2501 2.35351 17.6347 1.73816C17.33 1.43346 16.9683 1.19177 16.5702 1.02687C16.1721 0.861972 15.7454 0.7771 15.3145 0.7771C14.4443 0.7771 13.6097 1.1228 12.9943 1.73816C12.5771 2.15534 12.2448 2.80925 12 3.6878C11.7551 2.80925 11.4227 2.15534 11.0057 1.73816C10.3903 1.1228 9.55571 0.7771 8.68547 0.7771C7.81523 0.7771 6.98063 1.1228 6.36527 1.73816C5.74992 2.35351 5.40422 3.18811 5.40422 4.05835C5.40422 4.92859 5.74992 5.76319 6.36527 6.37855C6.58202 6.58875 6.82858 6.76585 7.09699 6.90413H1.6875C1.31466 6.90453 0.957212 7.05282 0.693576 7.31646C0.429941 7.58009 0.281653 7.93754 0.28125 8.31038V12.0604C0.281653 12.4332 0.429941 12.7907 0.693576 13.0543C0.957212 13.3179 1.31466 13.4662 1.6875 13.4666H2.15625V21.4354C2.15665 21.8082 2.30494 22.1657 2.56858 22.4293C2.83221 22.6929 3.18966 22.8412 3.5625 22.8416H20.4375C20.8103 22.8412 21.1678 22.6929 21.4314 22.4293C21.6951 22.1657 21.8433 21.8082 21.8438 21.4354V13.4666H22.3125C22.6853 13.4662 23.0428 13.3179 23.3064 13.0543C23.5701 12.7907 23.7183 12.4332 23.7188 12.0604V8.31038C23.7183 7.93754 23.5701 7.58009 23.3064 7.31646C23.0428 7.05282 22.6853 6.90453 22.3125 6.90413ZM13.6573 2.40109C14.0968 1.96154 14.6929 1.71459 15.3145 1.71458C15.6223 1.71458 15.9271 1.77519 16.2115 1.89298C16.4958 2.01076 16.7542 2.18339 16.9719 2.40103C17.1895 2.61866 17.3621 2.87703 17.4799 3.16139C17.5977 3.44575 17.6584 3.75052 17.6584 4.05831C17.6584 4.3661 17.5977 4.67087 17.48 4.95523C17.3622 5.2396 17.1896 5.49797 16.9719 5.71562C16.1211 6.56628 13.7638 6.83745 12.4804 6.89265C12.5354 5.60909 12.8066 3.25163 13.6573 2.40109ZM7.02809 2.40109C7.46799 1.96221 8.06402 1.71574 8.68541 1.71574C9.3068 1.71574 9.90283 1.96221 10.3427 2.40109C11.1935 3.25175 11.4646 5.60909 11.5196 6.89265C10.2362 6.83745 7.87887 6.56628 7.02809 5.71562C6.58927 5.2757 6.34284 4.67971 6.34284 4.05835C6.34284 3.437 6.58927 2.841 7.02809 2.40109ZM1.21875 12.0604V8.31038C1.21887 8.1861 1.2683 8.06694 1.35618 7.97906C1.44406 7.89118 1.56322 7.84176 1.6875 7.84163H11.5312V12.5291H1.6875C1.56322 12.529 1.44406 12.4796 1.35618 12.3917C1.2683 12.3038 1.21887 12.1847 1.21875 12.0604ZM3.09375 21.4354V13.4666H11.5312V21.9041H3.5625C3.43822 21.904 3.31906 21.8546 3.23118 21.7667C3.1433 21.6788 3.09387 21.5597 3.09375 21.4354ZM20.9062 21.4354C20.9061 21.5597 20.8567 21.6788 20.7688 21.7667C20.6809 21.8546 20.5618 21.904 20.4375 21.9041H12.4688V13.4666H20.9062V21.4354ZM22.7812 12.0604C22.7811 12.1847 22.7317 12.3038 22.6438 12.3917C22.5559 12.4796 22.4368 12.529 22.3125 12.5291H12.4688V7.84163H22.3125C22.4368 7.84176 22.5559 7.89118 22.6438 7.97906C22.7317 8.06694 22.7811 8.1861 22.7812 8.31038V12.0604Z" fill="black"/>
</svg>
