<svg width="24" height="24" viewBox="0 0 24 24" fill="none" xmlns="http://www.w3.org/2000/svg">
<path d="M12 4.63062C10.5423 4.63062 9.11722 5.0629 7.90512 5.87279C6.69303 6.68269 5.74832 7.83382 5.19045 9.18063C4.63259 10.5274 4.48663 12.0094 4.77102 13.4392C5.05542 14.8689 5.7574 16.1823 6.7882 17.2131C7.819 18.2439 9.13232 18.9459 10.5621 19.2302C11.9918 19.5146 13.4738 19.3687 14.8206 18.8108C16.1674 18.253 17.3186 17.3082 18.1285 16.0961C18.9384 14.8841 19.3706 13.459 19.3706 12.0012C19.3685 10.0471 18.5912 8.17361 17.2094 6.79182C15.8277 5.41003 13.9542 4.63279 12 4.63062ZM12 18.5525C10.7045 18.5525 9.43814 18.1684 8.36096 17.4486C7.28379 16.7289 6.44422 15.706 5.94841 14.5091C5.45261 13.3122 5.32284 11.9952 5.5755 10.7246C5.82817 9.45401 6.45194 8.28686 7.36792 7.37074C8.28391 6.45463 9.45097 5.83069 10.7215 5.57784C11.9921 5.32499 13.3091 5.45458 14.5061 5.95021C15.703 6.44584 16.7261 7.28527 17.446 8.36234C18.1658 9.43941 18.5501 10.7058 18.5503 12.0012C18.5484 13.7379 17.8577 15.4029 16.6297 16.6309C15.4017 17.8589 13.7367 18.5496 12 18.5516V18.5525Z" fill="black"/>
<path d="M22.6385 13.7121C23.1173 13.2321 23.6602 12.6881 23.6602 12C23.6602 11.3119 23.1173 10.7679 22.6385 10.2891C22.3165 9.96633 21.9837 9.63281 21.907 9.34617C21.8245 9.03773 21.9487 8.56805 22.0688 8.11359C22.2469 7.43977 22.4309 6.74273 22.0992 6.16969C21.7624 5.58773 21.0605 5.39836 20.3815 5.21531C19.9331 5.09437 19.4693 4.96922 19.2506 4.75055C19.032 4.53188 18.907 4.06828 18.7861 3.61969C18.603 2.94 18.4137 2.23898 17.832 1.90219C17.2584 1.57055 16.5614 1.75453 15.8866 1.93242C15.4322 2.05242 14.962 2.17617 14.6541 2.09414C14.3672 2.0175 14.0339 1.68469 13.7112 1.36266C13.2321 0.882656 12.6881 0.339844 12 0.339844C11.3119 0.339844 10.7681 0.882656 10.2891 1.36148C9.96633 1.68352 9.63281 2.01633 9.34617 2.09297C9.03773 2.175 8.56781 2.05125 8.11336 1.93125C7.43906 1.75313 6.7425 1.56891 6.16922 1.90078C5.58727 2.23758 5.39812 2.93953 5.21484 3.61852C5.09414 4.06687 4.96898 4.53094 4.75031 4.74937C4.53164 4.96781 4.06805 5.09297 3.61945 5.21391C2.93977 5.39695 2.23852 5.58633 1.90195 6.16828C1.57031 6.74133 1.7543 7.43836 1.93219 8.11219C2.05219 8.56664 2.17641 9.03656 2.09391 9.345C2.01562 9.63281 1.68352 9.96516 1.36172 10.2891C0.882656 10.7691 0.339844 11.313 0.339844 12.0012C0.339844 12.6893 0.882656 13.2333 1.36172 13.7133C1.68352 14.036 2.01633 14.3695 2.09297 14.6562C2.17547 14.9646 2.05125 15.4343 1.93125 15.889C1.75336 16.5628 1.56914 17.2596 1.90102 17.8327C2.23758 18.4146 2.93953 18.604 3.61852 18.787C4.06687 18.908 4.5307 19.0331 4.74914 19.2518C4.96758 19.4705 5.09297 19.9343 5.21391 20.3827C5.39695 21.0623 5.58633 21.7634 6.16828 22.1002C6.74133 22.432 7.43859 22.2478 8.11242 22.0699C8.56664 21.9499 9.03609 21.8255 9.345 21.9082C9.63188 21.9848 9.96539 22.3177 10.2881 22.6397C10.7681 23.1185 11.3119 23.6613 11.9991 23.6613C12.6862 23.6613 13.2312 23.1185 13.7112 22.6397C14.0339 22.3177 14.3674 21.9848 14.6541 21.9082C14.9623 21.8257 15.4327 21.9499 15.8866 22.0699C16.5607 22.2483 17.2573 22.4323 17.8305 22.1004C18.4125 21.7636 18.6019 21.0616 18.7849 20.3827C18.9059 19.9343 19.031 19.4705 19.2497 19.2518C19.4684 19.0331 19.932 18.9082 20.3805 18.7873C21.0602 18.6042 21.7612 18.4148 22.098 17.8331C22.4299 17.2598 22.2459 16.5628 22.0678 15.8878C21.9476 15.4334 21.8236 14.9637 21.9061 14.6552C21.9844 14.3672 22.3165 14.0348 22.6385 13.7121ZM21.2756 16.0969C21.4111 16.6102 21.5512 17.1408 21.3891 17.4209C21.222 17.7096 20.6859 17.8545 20.168 17.9939C19.6153 18.143 19.0441 18.297 18.6705 18.6705C18.297 19.0441 18.1427 19.6153 17.9939 20.168C17.8533 20.6862 17.7096 21.2227 17.4209 21.3893C17.1396 21.5515 16.6102 21.4109 16.0971 21.2756C15.5393 21.1282 14.9623 20.9763 14.4431 21.1146C13.9444 21.2477 13.5316 21.6595 13.1327 22.0577C12.7472 22.4423 12.3488 22.8398 12 22.8398C11.6512 22.8398 11.2528 22.4414 10.8675 22.0577C10.4691 21.6593 10.0559 21.2477 9.55688 21.1146C9.41208 21.0771 9.263 21.0587 9.11344 21.06C8.70246 21.0807 8.29573 21.1531 7.90289 21.2756C7.38984 21.4109 6.85898 21.5508 6.57914 21.3891C6.29016 21.222 6.14555 20.6859 6.00586 20.168C5.85703 19.6153 5.70305 19.0441 5.32945 18.6705C4.95586 18.297 4.38445 18.1427 3.83203 17.9939C3.31383 17.8533 2.77734 17.7096 2.61094 17.4209C2.44875 17.1396 2.58891 16.6102 2.72438 16.0971C2.8718 15.5393 3.02437 14.9623 2.88539 14.4431C2.75203 13.9444 2.34047 13.5316 1.94227 13.1327C1.55789 12.7472 1.16016 12.3488 1.16016 12C1.16016 11.6512 1.55859 11.2528 1.94227 10.8673C2.3407 10.4688 2.75203 10.0556 2.88539 9.55688C3.02437 9.03773 2.8718 8.4607 2.72438 7.90266C2.58891 7.38961 2.44898 6.85922 2.61094 6.57914C2.77805 6.29039 3.31406 6.14555 3.83203 6.00609C4.38469 5.85703 4.95703 5.70305 5.32945 5.32945C5.70188 4.95586 5.85727 4.38469 6.00609 3.83203C6.14672 3.31383 6.29039 2.77734 6.57914 2.6107C6.85875 2.44852 7.38961 2.58891 7.90289 2.72438C8.46094 2.87203 9.0382 3.02414 9.55688 2.88539C10.0559 2.75227 10.4684 2.34047 10.8675 1.94227C11.2528 1.55766 11.6512 1.16016 12 1.16016C12.3488 1.16016 12.7472 1.55859 13.1327 1.94227C13.5312 2.3407 13.9444 2.75227 14.4431 2.88539C14.9623 3.02414 15.5393 2.87203 16.0969 2.72438C16.6102 2.58914 17.1405 2.44875 17.4209 2.61094C17.7096 2.77805 17.8545 3.31406 17.9939 3.83203C18.143 4.38469 18.297 4.95703 18.6705 5.32945C19.0441 5.70188 19.6153 5.85727 20.168 6.00609C20.6862 6.14672 21.2227 6.29039 21.3893 6.57914C21.5512 6.86039 21.4111 7.38984 21.2756 7.90289C21.1282 8.4607 20.9759 9.03773 21.1146 9.55688C21.2477 10.0556 21.6595 10.4684 22.0577 10.8673C22.4423 11.2528 22.8398 11.6512 22.8398 12C22.8398 12.3488 22.4414 12.7472 22.0577 13.1327C21.6593 13.5312 21.2477 13.9444 21.1146 14.4431C20.9766 14.962 21.1282 15.5391 21.2756 16.0969Z" fill="black"/>
<path d="M15.2042 8.68848C15.0272 8.68799 14.8518 8.72265 14.6883 8.79044C14.5247 8.85823 14.3763 8.95781 14.2515 9.0834L11.2761 12.0583L9.74868 10.5309C9.62389 10.4042 9.47526 10.3035 9.31136 10.2345C9.14746 10.1655 8.97153 10.1297 8.7937 10.129C8.61588 10.1283 8.43968 10.1628 8.27526 10.2306C8.11084 10.2983 7.96145 10.3979 7.8357 10.5236C7.70995 10.6494 7.61032 10.7987 7.54257 10.9631C7.47482 11.1276 7.44027 11.3038 7.44093 11.4816C7.44158 11.6594 7.47742 11.8353 7.54639 11.9993C7.61535 12.1632 7.71607 12.3118 7.84274 12.4366L10.3231 14.917C10.4482 15.0422 10.5968 15.1415 10.7603 15.2093C10.9238 15.2771 11.0991 15.3119 11.2761 15.3119C11.4531 15.3119 11.6284 15.2771 11.7919 15.2093C11.9554 15.1415 12.104 15.0422 12.2291 14.917L16.1572 10.9893C16.3456 10.8008 16.474 10.5607 16.526 10.2993C16.5779 10.0378 16.5512 9.76686 16.4493 9.52059C16.3473 9.27433 16.1745 9.06384 15.9529 8.91573C15.7313 8.76762 15.4708 8.68853 15.2042 8.68848ZM15.5773 10.409L11.6485 14.3372C11.548 14.433 11.4145 14.4864 11.2756 14.4864C11.1368 14.4864 11.0032 14.433 10.9027 14.3372L8.42282 11.8568C8.37385 11.8078 8.33501 11.7497 8.3085 11.6857C8.282 11.6217 8.26836 11.5531 8.26836 11.4839C8.26836 11.4146 8.282 11.346 8.3085 11.2821C8.33501 11.2181 8.37385 11.16 8.42282 11.111C8.47179 11.062 8.52992 11.0232 8.5939 10.9967C8.65788 10.9702 8.72646 10.9565 8.79571 10.9565C8.86496 10.9565 8.93353 10.9702 8.99751 10.9967C9.06149 11.0232 9.11963 11.062 9.1686 11.111L10.9862 12.9283C11.0242 12.9664 11.0694 12.9967 11.1192 13.0173C11.1689 13.0379 11.2222 13.0486 11.2761 13.0486C11.33 13.0486 11.3833 13.0379 11.433 13.0173C11.4828 12.9967 11.528 12.9664 11.566 12.9283L14.8318 9.66301C14.9321 9.56696 15.0657 9.51335 15.2046 9.51335C15.3435 9.51335 15.477 9.56696 15.5773 9.66301C15.6263 9.71196 15.6651 9.77008 15.6916 9.83404C15.7181 9.898 15.7318 9.96655 15.7318 10.0358C15.7318 10.105 15.7181 10.1736 15.6916 10.2375C15.6651 10.3015 15.6263 10.3596 15.5773 10.4086V10.409Z" fill="black"/>
</svg>
