<svg width="30" height="22" viewBox="0 0 30 22" fill="none" xmlns="http://www.w3.org/2000/svg">
<path d="M7 16.4998C6.1716 16.4998 5.5 17.1714 5.5 17.9998C5.5 18.8282 6.17154 19.4998 7 19.4998C7.82845 19.4998 8.5 18.8282 8.5 17.9998C8.49906 17.1717 7.82804 16.5006 7 16.4998ZM7 18.4997C6.72385 18.4997 6.50002 18.2759 6.50002 17.9998C6.50002 17.7236 6.72385 17.4998 7 17.4998C7.27615 17.4998 7.49998 17.7236 7.49998 17.9998C7.49969 18.2758 7.27603 18.4994 7 18.4997Z" fill="black"/>
<path d="M23 16.4998C22.1716 16.4998 21.5 17.1714 21.5 17.9998C21.5 18.8282 22.1716 19.4998 23 19.4998C23.8284 19.4998 24.5 18.8282 24.5 17.9998C24.4991 17.1717 23.828 16.5006 23 16.4998ZM23 18.4997C22.7238 18.4997 22.5 18.2759 22.5 17.9998C22.5 17.7236 22.7239 17.4998 23 17.4998C23.2762 17.4998 23.5 17.7236 23.5 17.9998C23.4997 18.2758 23.276 18.4994 23 18.4997Z" fill="black"/>
<path d="M29.6189 9.38208L26.1746 5.50317C25.8892 5.18185 25.4798 4.99839 25.0501 4.99927H20.5V1.99927C20.4991 1.17122 19.8281 0.500146 19 0.499268H1.5C0.671953 0.500146 0.000878955 1.17122 4.88301e-08 1.99927V14.9993C-5.85449e-05 15.1319 0.0526172 15.2591 0.146426 15.3529C0.240176 15.4467 0.367383 15.4993 0.500039 15.4993H1.00002V16.9993C1.0009 17.8274 1.67197 18.4984 2.50002 18.4993H3.53994C3.78639 20.2208 5.26096 21.4993 7.00002 21.4993C8.73908 21.4993 10.2137 20.2208 10.4601 18.4993H19.54C19.7865 20.2208 21.261 21.4993 23.0001 21.4993C24.7392 21.4993 26.2137 20.2208 26.4602 18.4993H28.5C29.328 18.4984 29.9991 17.8274 30 16.9993V10.3792C29.9996 10.0113 29.864 9.65642 29.6189 9.38208ZM1.00002 14.4992V1.99927C1.00031 1.72323 1.22396 1.49952 1.5 1.49929H19C19.2761 1.49958 19.4998 1.72323 19.5 1.99927V14.4992H1.00002ZM3.53994 17.4992H2.50002C2.22398 17.499 2.00027 17.2753 2.00004 16.9993V15.4993H4.55531C4.00605 16.0361 3.64916 16.7391 3.53994 17.4992ZM7.00002 20.4992C5.61932 20.4992 4.5 19.3799 4.5 17.9992C4.5 16.6185 5.61932 15.4993 7.00002 15.4993C8.38072 15.4993 9.50004 16.6186 9.50004 17.9993C9.4984 19.3793 8.38002 20.4977 7.00002 20.4992ZM12 17.4992H10.46C10.3508 16.7391 9.99398 16.036 9.44473 15.4993H12V17.4992ZM16.5 17.4992H13V15.4993H16.5V17.4992ZM19.54 17.4992H17.5V15.4993H20.5553C20.006 16.0361 19.6492 16.7391 19.54 17.4992ZM23 20.4992C21.6193 20.4992 20.5 19.3799 20.5 17.9992C20.5 16.6185 21.6192 15.4992 23 15.4992C24.3807 15.4992 25.5 16.6185 25.5 17.9992C25.4984 19.3793 24.38 20.4977 23 20.4992ZM29 16.9993C28.9997 17.2753 28.776 17.499 28.5 17.4992H26.4601C26.2107 15.7793 24.7379 14.5024 23 14.4992H20.5V5.99929H22.5V10.9993C22.5009 11.8273 23.172 12.4984 24 12.4993H29V16.9993ZM29 11.4992H24C23.724 11.499 23.5003 11.2753 23.5 10.9993V5.99929H25.0501C25.1936 5.99847 25.3306 6.05929 25.4263 6.16628L28.8718 10.0467C28.9539 10.1381 28.9995 10.2564 29 10.3792V11.4992H29Z" fill="black"/>
</svg>
