<svg width="20" height="14" viewBox="0 0 20 14" fill="none" xmlns="http://www.w3.org/2000/svg">
<path d="M17.5002 0.375015L6.90018 10.975L2.47518 6.55002C2.24146 6.31629 1.92447 6.18499 1.59393 6.18499C1.2634 6.18499 0.946404 6.31629 0.712682 6.55002C0.47896 6.78374 0.347656 7.10073 0.347656 7.43127C0.347656 7.59493 0.379892 7.75699 0.442524 7.9082C0.505155 8.0594 0.596955 8.19679 0.712682 8.31252L6.01268 13.6125C6.50018 14.1 7.28768 14.1 7.77518 13.6125L19.2502 2.13752C19.3667 2.02057 19.4588 1.88169 19.5213 1.72891C19.5838 1.57613 19.6154 1.41247 19.6142 1.24741C19.6131 1.08234 19.5792 0.91915 19.5145 0.767261C19.4499 0.615373 19.3558 0.477806 19.2377 0.362515C18.7752 -0.112485 17.9877 -0.112485 17.5002 0.375015Z" fill="white"/>
</svg>
