<svg width="20" height="20" viewBox="0 0 20 20" fill="none" xmlns="http://www.w3.org/2000/svg">
<g clip-path="url(#clip0)">
<path d="M12.7574 7.24609C12.4987 7.24609 12.2891 7.45577 12.2891 7.71448V16.5669C12.2891 16.8255 12.4987 17.0353 12.7574 17.0353C13.0162 17.0353 13.2258 16.8255 13.2258 16.5669V7.71448C13.2258 7.45577 13.0162 7.24609 12.7574 7.24609Z" fill="black"/>
<path d="M7.2301 7.24609C6.97139 7.24609 6.76172 7.45577 6.76172 7.71448V16.5669C6.76172 16.8255 6.97139 17.0353 7.2301 17.0353C7.48881 17.0353 7.69849 16.8255 7.69849 16.5669V7.71448C7.69849 7.45577 7.48881 7.24609 7.2301 7.24609Z" fill="black"/>
<path d="M3.20528 5.95419V17.4942C3.20528 18.1762 3.45539 18.8168 3.8923 19.2764C4.32721 19.7373 4.93244 19.9989 5.56586 20H14.4278C15.0614 19.9989 15.6666 19.7373 16.1014 19.2764C16.5383 18.8168 16.7884 18.1762 16.7884 17.4942V5.95419C17.6569 5.72366 18.2197 4.8846 18.1035 3.99339C17.9871 3.10236 17.228 2.43583 16.3293 2.43565H13.9312V1.85017C13.934 1.35782 13.7393 0.885048 13.3908 0.537238C13.0422 0.18961 12.5687 -0.00396362 12.0764 6.15416e-05H7.91728C7.42493 -0.00396362 6.95143 0.18961 6.60289 0.537238C6.25434 0.885048 6.05967 1.35782 6.06242 1.85017V2.43565H3.66433C2.76563 2.43583 2.00652 3.10236 1.89015 3.99339C1.77397 4.8846 2.33676 5.72366 3.20528 5.95419ZM14.4278 19.0632H5.56586C4.76503 19.0632 4.14205 18.3753 4.14205 17.4942V5.99536H15.8516V17.4942C15.8516 18.3753 15.2286 19.0632 14.4278 19.0632ZM6.99918 1.85017C6.99607 1.60628 7.09194 1.37154 7.26503 1.19938C7.43792 1.02721 7.67321 0.932619 7.91728 0.936827H12.0764C12.3204 0.932619 12.5557 1.02721 12.7286 1.19938C12.9017 1.37136 12.9976 1.60628 12.9945 1.85017V2.43565H6.99918V1.85017ZM3.66433 3.37242H16.3293C16.795 3.37242 17.1724 3.74987 17.1724 4.2155C17.1724 4.68114 16.795 5.05859 16.3293 5.05859H3.66433C3.1987 5.05859 2.82125 4.68114 2.82125 4.2155C2.82125 3.74987 3.1987 3.37242 3.66433 3.37242Z" fill="black"/>
<path d="M9.99573 7.24609C9.73702 7.24609 9.52734 7.45577 9.52734 7.71448V16.5669C9.52734 16.8255 9.73702 17.0353 9.99573 17.0353C10.2544 17.0353 10.4641 16.8255 10.4641 16.5669V7.71448C10.4641 7.45577 10.2544 7.24609 9.99573 7.24609Z" fill="black"/>
</g>
<defs>
<clipPath id="clip0">
<rect width="20" height="20" fill="white"/>
</clipPath>
</defs>
</svg>
