<svg width="20" height="20" viewBox="0 0 20 20" fill="none" xmlns="http://www.w3.org/2000/svg">
<rect x="0.25" y="0.25" width="19.5" height="19.5" rx="2.75" fill="white" stroke="#ABABAB" stroke-width="0.5"/>
<g clip-path="url(#clip0)">
<path d="M6.09166 10.2205C6.09175 10.2206 6.09183 10.2207 6.09194 10.2208L7.72481 11.8458C7.84714 11.9675 8.045 11.9671 8.16677 11.8447C8.28852 11.7224 8.28805 11.5245 8.16572 11.4028L7.06941 10.3118L13.6875 10.3118C13.8601 10.3118 14 10.1719 14 9.99927C14 9.82667 13.8601 9.68677 13.6875 9.68677L7.06942 9.68677L8.1657 8.59577C8.28803 8.47402 8.2885 8.27616 8.16675 8.15383C8.04498 8.03147 7.84711 8.03105 7.7248 8.15277L6.09192 9.77777C6.09183 9.77786 6.09175 9.77797 6.09164 9.77807C5.96925 9.90022 5.96964 10.0987 6.09166 10.2205Z" fill="black"/>
</g>
<defs>
<clipPath id="clip0">
<rect width="8" height="8" fill="white" transform="translate(14 13.9993) rotate(180)"/>
</clipPath>
</defs>
</svg>
