<svg width="20" height="20" viewBox="0 0 20 20" fill="none" xmlns="http://www.w3.org/2000/svg">
<rect x="0.25" y="0.25" width="19.5" height="19.5" rx="2.75" fill="white" stroke="#ABABAB" stroke-width="0.5"/>
<g clip-path="url(#clip0)">
<path d="M13.9083 9.7788C13.9082 9.7787 13.9082 9.77859 13.9081 9.7785L12.2752 8.1535C12.1529 8.03176 11.955 8.03222 11.8332 8.15456C11.7115 8.27689 11.712 8.47475 11.8343 8.5965L12.9306 9.6875L6.3125 9.6875C6.13991 9.6875 6 9.8274 6 10C6 10.1726 6.13991 10.3125 6.3125 10.3125L12.9306 10.3125L11.8343 11.4035C11.712 11.5252 11.7115 11.7231 11.8333 11.8454C11.955 11.9678 12.1529 11.9682 12.2752 11.8465L13.9081 10.2215C13.9082 10.2214 13.9083 10.2213 13.9084 10.2212C14.0308 10.099 14.0304 9.90055 13.9083 9.7788Z" fill="black"/>
</g>
<defs>
<clipPath id="clip0">
<rect width="8" height="8" fill="white" transform="translate(6 6)"/>
</clipPath>
</defs>
</svg>
