<svg width="38" height="50" viewBox="0 0 38 50" fill="none" xmlns="http://www.w3.org/2000/svg">
<path d="M16.538 34.6008L15.8809 40.51C15.8483 40.804 15.9429 41.099 16.1402 41.3198C16.3376 41.5405 16.6204 41.6666 16.9164 41.6666H21.0831C21.3791 41.6666 21.6619 41.5405 21.8593 41.3198C22.0566 41.0991 22.1513 40.8041 22.1187 40.51L21.4615 34.6008C22.5286 33.8247 23.1664 32.5968 23.1664 31.25C23.1664 28.952 21.2978 27.0833 18.9997 27.0833C16.7017 27.0833 14.833 28.952 14.833 31.25C14.833 32.5968 15.4709 33.8247 16.538 34.6008ZM18.9997 29.1666C20.1481 29.1666 21.083 30.1015 21.083 31.25C21.083 32.0485 20.6293 32.7636 19.8989 33.1176C19.5012 33.3109 19.2683 33.7321 19.3171 34.1705L19.9193 39.5833H18.0802L18.6824 34.1705C18.7313 33.732 18.4983 33.3109 18.1006 33.1176C17.3702 32.7636 16.9165 32.0485 16.9165 31.25C16.9164 30.1015 17.8513 29.1666 18.9997 29.1666Z" fill="black"/>
<path d="M36.7083 18.75H33.5833V14.5833C33.5833 6.54199 27.0414 0 19 0C10.9586 0 4.4167 6.54199 4.4167 14.5833V18.75H1.2917C0.715918 18.75 0.25 19.2159 0.25 19.7917V45.8334C0.25 48.1313 2.11865 50 4.4167 50H33.5834C35.8813 50 37.75 48.1313 37.75 45.8333V19.7917C37.75 19.2159 37.2841 18.75 36.7083 18.75ZM6.5 14.5833C6.5 7.69043 12.1071 2.0833 19 2.0833C25.8929 2.0833 31.5 7.69043 31.5 14.5833V18.75H29.4167V14.5833C29.4167 8.83984 24.7435 4.1666 19 4.1666C13.2565 4.1666 8.5833 8.83994 8.5833 14.5833V18.75H6.5V14.5833ZM27.3333 14.5833V18.75H10.6667V14.5833C10.6667 9.98838 14.4051 6.25 19 6.25C23.5949 6.25 27.3333 9.98838 27.3333 14.5833ZM35.6667 45.8333C35.6667 46.9817 34.7318 47.9166 33.5834 47.9166H4.4167C3.26826 47.9166 2.3334 46.9817 2.3334 45.8333V20.8333H35.6667V45.8333Z" fill="black"/>
</svg>
