<svg width="50" height="46" viewBox="0 0 50 46" fill="none" xmlns="http://www.w3.org/2000/svg">
<path d="M36.9792 0.083252C31.4331 0.083252 26.8524 5.23462 25 7.66587C23.1476 5.23462 18.5669 0.083252 13.0208 0.083252C5.84111 0.083252 0 6.68423 0 14.7968C0 19.2229 1.75684 23.3478 4.83193 26.1708C4.87666 26.2481 4.93164 26.3193 4.9957 26.3834L24.2645 45.6125C24.468 45.8149 24.7335 45.9167 25 45.9167C25.2665 45.9167 25.533 45.8149 25.7365 45.6115L45.6462 25.7089L45.8517 25.5095C46.0145 25.3559 46.1752 25.2002 46.3552 25.0009C46.4305 24.9267 46.4925 24.8432 46.5403 24.7527C48.7732 22.0183 50 18.4915 50 14.7968C50 6.68423 44.159 0.083252 36.9792 0.083252ZM44.8069 23.5808C44.7784 23.6144 44.752 23.65 44.7286 23.6866C44.631 23.7985 44.5241 23.8971 44.4184 23.9979L24.999 43.403L6.70576 25.1463C6.64678 25.0303 6.56436 24.9246 6.46367 24.8361C3.67939 22.4048 2.0833 18.7458 2.0833 14.7968C2.0833 7.83267 6.98955 2.16665 13.0208 2.16665C18.984 2.16665 24.0732 9.94458 24.1241 10.0229C24.5087 10.6169 25.4913 10.6169 25.8759 10.0229C25.9268 9.94458 31.016 2.16665 36.9792 2.16665C43.0104 2.16665 47.9167 7.83277 47.9167 14.7968C47.9167 18.0785 46.8119 21.1984 44.8069 23.5808Z" fill="black"/>
</svg>
