<svg width="50" height="50" viewBox="0 0 50 50" fill="none" xmlns="http://www.w3.org/2000/svg">
<path d="M47 13.8843H35.4598C36.0324 13.571 36.5583 13.1697 37.0207 12.6933C38.3335 11.2989 39.071 9.40762 39.071 7.43558C39.071 5.46354 38.3335 3.57227 37.0207 2.17783C36.3707 1.48737 35.5991 0.939673 34.7498 0.566C33.9005 0.192327 32.9903 0 32.071 0C30.2145 0 28.434 0.783389 27.1213 2.17783C26.2313 3.12321 25.5222 4.60502 25 6.59589C24.4775 4.60502 23.7685 3.12321 22.8787 2.17783C21.566 0.783389 19.7855 0 17.929 0C16.0725 0 14.292 0.783389 12.9792 2.17783C11.6665 3.57227 10.929 5.46354 10.929 7.43558C10.929 9.40762 11.6665 11.2989 12.9792 12.6933C13.4416 13.1697 13.9676 13.571 14.5403 13.8843H3C2.20461 13.8853 1.44205 14.2213 0.87963 14.8187C0.317207 15.4161 0.00086027 16.2261 0 17.071V25.5688C0.00086027 26.4137 0.317207 27.2237 0.87963 27.8211C1.44205 28.4186 2.20461 28.7546 3 28.7555H4V46.8133C4.00086 47.6582 4.31721 48.4682 4.87963 49.0656C5.44205 49.6631 6.20461 49.9991 7 50H43C43.7954 49.9991 44.5579 49.6631 45.1204 49.0656C45.6828 48.4682 45.9991 47.6582 46 46.8133V28.7555H47C47.7954 28.7546 48.5579 28.4186 49.1204 27.8211C49.6828 27.2237 49.9991 26.4137 50 25.5688V17.071C49.9991 16.2261 49.6828 15.4161 49.1204 14.8187C48.5579 14.2213 47.7954 13.8853 47 13.8843ZM28.5355 3.68008C29.4732 2.68403 30.7449 2.12444 32.071 2.12441C32.7277 2.1244 33.3778 2.26176 33.9845 2.52866C34.5911 2.79556 35.1423 3.18677 35.6066 3.67995C36.0709 4.17313 36.4392 4.75862 36.6905 5.403C36.9418 6.04737 37.0712 6.73801 37.0712 7.43548C37.0712 8.13296 36.9419 8.8236 36.6906 9.46799C36.4393 10.1124 36.071 10.6979 35.6068 11.1911C33.7918 13.1187 28.7627 13.7332 26.0247 13.8583C26.1423 10.9497 26.7207 5.60749 28.5355 3.68008ZM14.3932 3.68008C15.3317 2.68555 16.6032 2.12703 17.9289 2.12703C19.2545 2.12703 20.526 2.68555 21.4645 3.68008C23.2795 5.60776 23.8577 10.9497 23.9753 13.8583C21.2373 13.7332 16.2083 13.1187 14.3932 11.1911C13.4571 10.1942 12.9314 8.84362 12.9314 7.43558C12.9314 6.02754 13.4571 4.67697 14.3932 3.68008ZM2 25.5688V17.071C2.00026 16.7894 2.10571 16.5194 2.29319 16.3202C2.48066 16.1211 2.73486 16.0091 3 16.0088H24V26.631H3C2.73486 26.6308 2.48066 26.5188 2.29319 26.3196C2.10571 26.1205 2.00026 25.8505 2 25.5688ZM6 46.8133V28.7555H24V47.8755H7C6.73486 47.8753 6.48066 47.7633 6.29319 47.5641C6.10571 47.365 6.00026 47.095 6 46.8133ZM44 46.8133C43.9997 47.095 43.8943 47.365 43.7068 47.5641C43.5193 47.7633 43.2651 47.8753 43 47.8755H26V28.7555H44V46.8133ZM48 25.5688C47.9997 25.8505 47.8943 26.1205 47.7068 26.3196C47.5193 26.5188 47.2651 26.6308 47 26.631H26V16.0088H47C47.2651 16.0091 47.5193 16.1211 47.7068 16.3202C47.8943 16.5194 47.9997 16.7894 48 17.071V25.5688Z" fill="black"/>
</svg>
