<svg width="40" height="40" viewBox="0 0 40 40" fill="none" xmlns="http://www.w3.org/2000/svg">
<path d="M31.6126 24.7786C30.7937 23.9259 29.8059 23.4701 28.7591 23.4701C27.7207 23.4701 26.7245 23.9175 25.8718 24.7702L23.2041 27.4295C22.9846 27.3113 22.7651 27.2015 22.554 27.0918C22.2501 26.9398 21.9631 26.7963 21.7182 26.6443C19.2193 25.0572 16.9484 22.9888 14.7702 20.3126C13.715 18.9788 13.0058 17.8559 12.4908 16.7162C13.1831 16.0831 13.8247 15.4246 14.4494 14.7914C14.6858 14.555 14.9222 14.3102 15.1586 14.0738C16.9315 12.3009 16.9315 10.0046 15.1586 8.23175L12.8539 5.92701C12.5921 5.6653 12.322 5.39515 12.0687 5.125C11.5622 4.60158 11.0303 4.06127 10.4816 3.55473C9.66267 2.74428 8.68337 2.31372 7.65341 2.31372C6.62345 2.31372 5.62726 2.74428 4.78304 3.55473C4.7746 3.56318 4.7746 3.56318 4.76615 3.57162L1.89578 6.46732C0.815169 7.54793 0.198883 8.86492 0.0638067 10.393C-0.138808 12.8581 0.587228 15.1544 1.14442 16.6571C2.51207 20.3464 4.5551 23.7655 7.60276 27.4295C11.3005 31.8448 15.7496 35.3314 20.8318 37.7881C22.7735 38.7084 25.3653 39.7974 28.261 39.9831C28.4383 39.9916 28.624 40 28.7929 40C30.743 40 32.3808 39.2993 33.6641 37.9063C33.6725 37.8895 33.6894 37.881 33.6978 37.8641C34.1368 37.3323 34.6434 36.8511 35.1752 36.3361C35.5382 35.9899 35.9097 35.6269 36.2727 35.247C37.1085 34.3775 37.5475 33.3644 37.5475 32.326C37.5475 31.2792 37.1001 30.2745 36.2474 29.4303L31.6126 24.7786ZM34.6349 33.6683C34.6265 33.6683 34.6265 33.6768 34.6349 33.6683C34.3057 34.0229 33.968 34.3437 33.605 34.6983C33.0562 35.2217 32.499 35.7704 31.9756 36.3867C31.1229 37.2985 30.1183 37.729 28.8013 37.729C28.6747 37.729 28.5396 37.729 28.413 37.7206C25.9056 37.5602 23.5755 36.5809 21.828 35.7451C17.0497 33.4319 12.8539 30.1479 9.36719 25.9858C6.48838 22.5161 4.56354 19.308 3.28876 15.8636C2.50362 13.7614 2.21659 12.1236 2.34322 10.5787C2.42764 9.59096 2.80755 8.77206 3.50825 8.07135L6.38707 5.19254C6.80074 4.80419 7.23974 4.59313 7.6703 4.59313C8.20216 4.59313 8.63272 4.91394 8.90287 5.18409C8.91131 5.19254 8.91975 5.20098 8.92819 5.20942C9.44317 5.69063 9.93282 6.18872 10.4478 6.72059C10.7095 6.99074 10.9797 7.26089 11.2498 7.53949L13.5546 9.84423C14.4494 10.7391 14.4494 11.5665 13.5546 12.4613C13.3097 12.7062 13.0733 12.951 12.8285 13.1874C12.1194 13.9134 11.444 14.5888 10.7095 15.2473C10.6926 15.2642 10.6757 15.2726 10.6673 15.2895C9.94127 16.0155 10.0763 16.7247 10.2283 17.2059C10.2367 17.2312 10.2452 17.2565 10.2536 17.2819C10.853 18.7339 11.6973 20.1016 12.9805 21.7309L12.9889 21.7394C15.319 24.6098 17.7757 26.847 20.4857 28.5607C20.8318 28.7802 21.1864 28.9575 21.5241 29.1264C21.828 29.2783 22.115 29.4219 22.3598 29.5738C22.3936 29.5907 22.4274 29.616 22.4612 29.6329C22.7482 29.7764 23.0183 29.844 23.2969 29.844C23.9977 29.844 24.4367 29.405 24.5802 29.2614L27.4674 26.3742C27.7545 26.0872 28.2103 25.741 28.7422 25.741C29.2656 25.741 29.6962 26.0703 29.9579 26.3573C29.9663 26.3658 29.9663 26.3658 29.9748 26.3742L34.6265 31.0259C35.496 31.887 35.496 32.7734 34.6349 33.6683Z" fill="#1F1F1F"/>
<path d="M21.6169 9.51481C23.8288 9.88627 25.8381 10.9331 27.4421 12.5371C29.0461 14.1412 30.0845 16.1504 30.4644 18.3623C30.5573 18.9195 31.0385 19.3078 31.5873 19.3078C31.6548 19.3078 31.7139 19.2994 31.7814 19.291C32.4062 19.1897 32.8198 18.5987 32.7185 17.974C32.2626 15.2978 30.9963 12.8579 29.063 10.9247C27.1297 8.99139 24.6899 7.72505 22.0137 7.26916C21.389 7.16786 20.8065 7.58153 20.6967 8.19781C20.587 8.8141 20.9922 9.4135 21.6169 9.51481Z" fill="#1F1F1F"/>
<path d="M39.9536 17.6448C39.2022 13.238 37.1254 9.2279 33.9342 6.03672C30.743 2.84554 26.733 0.768738 22.3261 0.0173754C21.7098 -0.0923741 21.1273 0.32974 21.0175 0.946026C20.9162 1.57075 21.3299 2.15327 21.9546 2.26302C25.8887 2.92996 29.4767 4.7957 32.3302 7.64075C35.1837 10.4942 37.041 14.0822 37.7079 18.0163C37.8008 18.5735 38.282 18.9618 38.8307 18.9618C38.8983 18.9618 38.9574 18.9534 39.0249 18.945C39.6412 18.8521 40.0633 18.2611 39.9536 17.6448Z" fill="#1F1F1F"/>
</svg>
