<svg width="30" height="30" viewBox="0 0 30 30" fill="none" xmlns="http://www.w3.org/2000/svg">
<g clip-path="url(#clip0)">
<path d="M28.344 5.30167e-08H1.65459C0.740662 0.000457817 -0.000228829 0.741806 5.30167e-08 1.65596V28.3454C0.000457817 29.2593 0.741806 30.0002 1.65596 30H28.344C29.2584 30.0002 29.9998 29.2591 30 28.3447C30 28.3445 30 28.3443 30 28.344V1.65459C29.9995 0.740662 29.2582 -0.000228829 28.344 5.30167e-08Z" fill="#7B7B7B"/>
<path d="M20.7129 29.9996V18.398H24.624L25.21 13.857H20.7129V10.9648C20.7129 9.65311 21.077 8.75932 22.958 8.75932H25.3418V4.7088C24.9271 4.65364 23.5041 4.53027 21.8484 4.53027C18.3913 4.53027 16.0254 6.63965 16.0254 10.5151V13.857H12.1289V18.398H16.0254V29.9996H20.7129Z" fill="white"/>
</g>
<defs>
<clipPath id="clip0">
<rect width="30" height="30" fill="white"/>
</clipPath>
</defs>
</svg>
