<svg width="100" height="100" viewBox="0 0 100 100" fill="none" xmlns="http://www.w3.org/2000/svg">
<path d="M100 50C100 66.5079 86.6667 80 70 80C53.4921 80 40 66.5079 40 50C40 33.4921 53.3333 20 69.8413 20C86.6667 20 100 33.4921 100 50Z" fill="#FFB600"/>
<path d="M70 20C86.5079 20 100 33.4921 100 50C100 66.5079 86.6667 80 70 80C53.4921 80 40 66.5079 40 50" fill="#F7981D"/>
<path d="M70 20C86.5079 20 100 33.4921 100 50C100 66.5079 86.6667 80 70 80" fill="#FF8500"/>
<path d="M29.6825 20C13.3333 20.1587 0 33.4921 0 50C0 66.5079 13.3333 80 30 80C37.7778 80 44.7619 76.9841 50.1587 72.2222C51.2698 71.2698 52.2222 70.1587 53.1746 69.0476H46.9841C46.1905 68.0952 45.3968 66.9841 44.7619 66.0317H55.3968C56.0317 65.0794 56.6667 63.9683 57.1429 62.8571H43.0159C42.5397 61.9048 42.0635 60.7936 41.746 59.6825H58.254C59.2064 56.6667 59.8413 53.4921 59.8413 50.1587C59.8413 47.9365 59.5238 45.873 59.2063 43.8095H40.7937C40.9524 42.6984 41.2698 41.746 41.5873 40.6349H58.0952C57.7778 39.5238 57.3016 38.4127 56.8254 37.4603H42.8571C43.3333 36.3492 43.9683 35.3968 44.6032 34.2857H55.2381C54.6032 33.1746 53.8095 32.0635 52.8571 31.1111H46.9841C47.9365 30 48.8889 29.0476 50 28.0952C44.7619 23.1746 37.619 20.3175 29.8413 20.3175C29.8413 20 29.8413 20 29.6825 20Z" fill="#FF5050"/>
<path d="M0 50C0 66.508 13.3333 80 30 80C37.7778 80 44.7619 76.9842 50.1587 72.2223C51.2698 71.2699 52.2222 70.1588 53.1746 69.0477H46.9841C46.1905 68.0953 45.3968 66.9842 44.7619 66.0318H55.3968C56.0317 65.0794 56.6667 63.9683 57.1429 62.8572H43.0159C42.5397 61.9048 42.0635 60.7937 41.746 59.6826H58.254C59.2064 56.6667 59.8413 53.4921 59.8413 50.1588C59.8413 47.9365 59.5238 45.8731 59.2063 43.8096H40.7937C40.9524 42.6985 41.2698 41.7461 41.5873 40.635H58.0952C57.7778 39.5239 57.3016 38.4127 56.8254 37.4604H42.8571C43.3333 36.3492 43.9683 35.3969 44.6032 34.2858H55.2381C54.6032 33.1746 53.8095 32.0635 52.8571 31.1112H46.9841C47.9365 30 48.8889 29.0477 50 28.0953C44.7619 23.1746 37.619 20.3175 29.8413 20.3175H29.6825" fill="#E52836"/>
<path d="M30.0001 80C37.7779 80 44.762 76.9842 50.1588 72.2223C51.2699 71.2699 52.2223 70.1588 53.1747 69.0477H46.9842C46.1906 68.0953 45.3969 66.9842 44.762 66.0318H55.3969C56.0318 65.0794 56.6667 63.9683 57.1429 62.8572H43.0159C42.5398 61.9048 42.0636 60.7937 41.7461 59.6826H58.254C59.2064 56.6667 59.8413 53.4921 59.8413 50.1588C59.8413 47.9365 59.5239 45.8731 59.2064 43.8096H40.7937C40.9525 42.6985 41.2699 41.7461 41.5874 40.635H58.0953C57.7778 39.5239 57.3017 38.4127 56.8255 37.4604H42.8572C43.3334 36.3492 43.9683 35.3969 44.6032 34.2858H55.2382C54.6032 33.1746 53.8096 32.0635 52.8572 31.1112H46.9842C47.9366 30 48.889 29.0477 50.0001 28.0953C44.762 23.1746 37.6191 20.3175 29.8413 20.3175H29.6826" fill="#CB2026"/>
<path d="M40.6349 57.619L41.1111 54.9206C40.9524 54.9206 40.6349 55.0793 40.3175 55.0793C39.2063 55.0793 39.0476 54.4444 39.2063 54.1269L40.1587 48.5714H41.9048L42.3809 45.5555H40.7936L41.1111 43.6508H37.9365C37.9365 43.6508 36.0317 54.1269 36.0317 55.3968C36.0317 57.3015 37.1428 58.0952 38.5714 58.0952C39.5238 58.0952 40.3175 57.7777 40.6349 57.619Z" fill="white"/>
<path d="M41.7456 52.5397C41.7456 56.9841 44.7615 58.0952 47.3012 58.0952C49.6821 58.0952 50.6345 57.619 50.6345 57.619L51.2694 54.6032C51.2694 54.6032 49.5234 55.3968 47.9361 55.3968C44.444 55.3968 45.0789 52.8571 45.0789 52.8571H51.5869C51.5869 52.8571 52.0631 50.7936 52.0631 50C52.0631 47.9365 50.952 45.3968 47.4599 45.3968C44.1266 45.0793 41.7456 48.5714 41.7456 52.5397ZM47.3012 47.9365C49.0472 47.9365 48.7297 50 48.7297 50.1587H45.2377C45.2377 50 45.5551 47.9365 47.3012 47.9365Z" fill="white"/>
<path d="M67.4601 57.6191L68.0951 54.127C68.0951 54.127 66.5078 54.9207 65.3966 54.9207C63.1744 54.9207 62.222 53.1747 62.222 51.2699C62.222 47.4604 64.1268 45.3969 66.349 45.3969C67.9363 45.3969 69.2062 46.3493 69.2062 46.3493L69.6824 43.0159C69.6824 43.0159 67.7776 42.2223 66.0316 42.2223C62.3808 42.2223 58.73 45.3969 58.73 51.4286C58.73 55.3969 60.6347 58.0953 64.4443 58.0953C65.7141 58.0953 67.4601 57.6191 67.4601 57.6191Z" fill="white"/>
<path d="M23.1743 45.0795C20.9521 45.0795 19.3648 45.7144 19.3648 45.7144L18.8886 48.4128C18.8886 48.4128 20.3172 47.7779 22.3807 47.7779C23.4918 47.7779 24.4442 47.9366 24.4442 48.889C24.4442 49.5239 24.2854 49.6826 24.2854 49.6826C24.2854 49.6826 23.3331 49.6826 22.8569 49.6826C20.1584 49.6826 17.1426 50.7938 17.1426 54.4446C17.1426 57.3017 19.0473 57.9366 20.1584 57.9366C22.3807 57.9366 23.3331 56.508 23.4918 56.508L23.3331 57.7779H26.1902L27.46 49.0477C27.46 45.2382 24.2854 45.0795 23.1743 45.0795ZM23.8092 52.2223C23.8092 52.6985 23.4918 55.2382 21.587 55.2382C20.6346 55.2382 20.3172 54.4446 20.3172 53.9684C20.3172 53.1747 20.7934 52.0636 23.1743 52.0636C23.6505 52.2223 23.8092 52.2223 23.8092 52.2223Z" fill="white"/>
<path d="M30.476 57.9365C31.2696 57.9365 35.2379 58.0953 35.2379 53.8095C35.2379 49.8413 31.4284 50.6349 31.4284 49.0476C31.4284 48.254 32.0633 47.9365 33.1744 47.9365C33.6506 47.9365 35.3966 48.0953 35.3966 48.0953L35.8728 45.2381C35.8728 45.2381 34.7617 44.9207 32.8569 44.9207C30.476 44.9207 28.095 45.873 28.095 49.0476C28.095 52.6984 32.0633 52.381 32.0633 53.8095C32.0633 54.7619 30.9522 54.9207 30.1585 54.9207C28.73 54.9207 27.3014 54.4445 27.3014 54.4445L26.8252 57.3016C26.9839 57.6191 27.7776 57.9365 30.476 57.9365Z" fill="white"/>
<path d="M93.8093 42.5398L93.1744 46.8255C93.1744 46.8255 91.9046 45.2382 90.1585 45.2382C87.3014 45.2382 84.7617 48.7303 84.7617 52.8573C84.7617 55.3969 86.0316 58.0953 88.73 58.0953C90.6347 58.0953 91.7458 56.8255 91.7458 56.8255L91.5871 57.9366H94.7617L97.1427 42.6985L93.8093 42.5398ZM92.3808 50.9525C92.3808 52.6985 91.5871 54.9207 89.8411 54.9207C88.73 54.9207 88.095 53.9684 88.095 52.3811C88.095 49.8414 89.2062 48.2541 90.6347 48.2541C91.7458 48.2541 92.3808 49.0477 92.3808 50.9525Z" fill="white"/>
<path d="M5.87281 57.7779L7.77757 46.3493L8.09503 57.7779H10.3173L14.4442 46.3493L12.6982 57.7779H16.0315L18.5712 42.5398H13.3331L10.1585 51.9049L9.99979 42.5398H5.39662L2.85693 57.7779H5.87281Z" fill="white"/>
<path d="M55.079 57.7778C56.0314 52.5397 56.1901 48.254 58.4123 49.0476C58.7298 46.9842 59.206 46.1905 59.5234 45.3969C59.5234 45.3969 59.3647 45.3969 58.8885 45.3969C57.4599 45.3969 56.3488 47.3016 56.3488 47.3016L56.6663 45.5556H53.6504L51.5869 57.9365H55.079V57.7778Z" fill="white"/>
<path d="M74.7617 45.0795C72.5395 45.0795 70.9522 45.7144 70.9522 45.7144L70.476 48.4128C70.476 48.4128 71.9046 47.7779 73.9681 47.7779C75.0792 47.7779 76.0316 47.9366 76.0316 48.889C76.0316 49.5239 75.8728 49.6826 75.8728 49.6826C75.8728 49.6826 74.9205 49.6826 74.4443 49.6826C71.7459 49.6826 68.73 50.7938 68.73 54.4446C68.73 57.3017 70.6347 57.9366 71.7459 57.9366C73.9681 57.9366 74.9205 56.508 75.0792 56.508L74.9205 57.7779H77.7776L79.0475 49.0477C79.2062 45.2382 75.8728 45.0795 74.7617 45.0795ZM75.5554 52.2223C75.5554 52.6985 75.2379 55.2382 73.3332 55.2382C72.3808 55.2382 72.0633 54.4446 72.0633 53.9684C72.0633 53.1747 72.5395 52.0636 74.9205 52.0636C75.3967 52.2223 75.3967 52.2223 75.5554 52.2223Z" fill="white"/>
<path d="M81.746 57.7778C82.6984 52.5397 82.8571 48.254 85.0793 49.0476C85.3968 46.9842 85.873 46.1905 86.1904 45.3969C86.1904 45.3969 86.0317 45.3969 85.5555 45.3969C84.1269 45.3969 83.0158 47.3016 83.0158 47.3016L83.3333 45.5556H80.3174L78.2539 57.9365H81.746V57.7778Z" fill="white"/>
<path d="M35.7139 55.3968C35.7139 57.3015 36.825 58.0952 38.2536 58.0952C39.3647 58.0952 40.317 57.7777 40.6345 57.619L41.1107 54.9206C40.952 54.9206 40.6345 55.0793 40.317 55.0793C39.2059 55.0793 39.0472 54.4444 39.2059 54.1269L40.1583 48.5714H41.9043L42.3805 45.5555H40.7932L41.1107 43.6508" fill="#DCE5E5"/>
<path d="M43.333 52.5397C43.333 56.9841 44.7616 58.0952 47.3013 58.0952C49.6822 58.0952 50.6346 57.619 50.6346 57.619L51.2695 54.6032C51.2695 54.6032 49.5235 55.3968 47.9362 55.3968C44.4441 55.3968 45.079 52.8571 45.079 52.8571H51.587C51.587 52.8571 52.0632 50.7936 52.0632 50C52.0632 47.9365 50.9521 45.3968 47.46 45.3968C44.1267 45.0793 43.333 48.5714 43.333 52.5397ZM47.3013 47.9365C49.0473 47.9365 49.3648 50 49.3648 50.1587H45.2378C45.2378 50 45.5552 47.9365 47.3013 47.9365Z" fill="#DCE5E5"/>
<path d="M67.4602 57.6191L68.0952 54.127C68.0952 54.127 66.5079 54.9207 65.3967 54.9207C63.1745 54.9207 62.2221 53.1747 62.2221 51.2699C62.2221 47.4604 64.1269 45.3969 66.3491 45.3969C67.9364 45.3969 69.2063 46.3493 69.2063 46.3493L69.6825 43.0159C69.6825 43.0159 67.7777 42.2223 66.0317 42.2223C62.3809 42.2223 60.3174 45.3969 60.3174 51.4286C60.3174 55.3969 60.6348 58.0953 64.4444 58.0953C65.7142 58.0953 67.4602 57.6191 67.4602 57.6191Z" fill="#DCE5E5"/>
<path d="M18.8886 48.5715C18.8886 48.5715 20.3172 47.9365 22.3807 47.9365C23.4918 47.9365 24.4442 48.0953 24.4442 49.0476C24.4442 49.6826 24.2854 49.8413 24.2854 49.8413C24.2854 49.8413 23.3331 49.8413 22.8569 49.8413C20.1584 49.8413 17.1426 50.9524 17.1426 54.6032C17.1426 57.4603 19.0473 58.0952 20.1584 58.0952C22.3807 58.0952 23.3331 56.6667 23.4918 56.6667L23.3331 57.9365H26.1902L27.46 49.2064C27.46 45.5556 24.2854 45.3969 23.0156 45.3969L18.8886 48.5715ZM25.3965 52.2222C25.3965 52.6984 23.4918 55.2381 21.587 55.2381C20.6346 55.2381 20.3172 54.4445 20.3172 53.9683C20.3172 53.1746 20.7934 52.0635 23.1743 52.0635C23.6505 52.2222 25.3965 52.2222 25.3965 52.2222Z" fill="#DCE5E5"/>
<path d="M26.9839 57.6191C26.9839 57.6191 27.9363 57.9365 30.6347 57.9365C31.4283 57.9365 35.3966 58.0953 35.3966 53.8095C35.3966 49.8413 31.5871 50.6349 31.5871 49.0476C31.5871 48.254 32.222 47.9365 33.3331 47.9365C33.8093 47.9365 35.5553 48.0953 35.5553 48.0953L36.0315 45.2381C36.0315 45.2381 34.9204 44.9207 33.0156 44.9207C30.6347 44.9207 29.841 45.873 29.841 49.0476C29.841 52.6984 32.222 52.381 32.222 53.8095C32.222 54.7619 31.1109 54.9207 30.3172 54.9207" fill="#DCE5E5"/>
<path d="M93.1743 46.8255C93.1743 46.8255 91.9045 45.2382 90.1584 45.2382C87.3013 45.2382 86.3489 48.7302 86.3489 52.8572C86.3489 55.3969 86.0315 58.0953 88.7299 58.0953C90.6346 58.0953 91.7457 56.8255 91.7457 56.8255L91.587 57.9366H94.7616L97.1426 42.6985L93.1743 46.8255ZM93.0156 50.9524C93.0156 52.6985 91.587 54.9207 89.841 54.9207C88.7299 54.9207 88.095 53.9683 88.095 52.381C88.095 49.8413 89.2061 48.254 90.6346 48.254C91.7457 48.254 93.0156 49.0477 93.0156 50.9524Z" fill="#DCE5E5"/>
<path d="M5.87281 57.7779L7.77757 46.3493L8.09503 57.7779H10.3173L14.4442 46.3493L12.6982 57.7779H16.0315L18.5712 42.5398H14.603L10.1585 51.9049L9.99979 42.5398H8.25376L2.85693 57.7779H5.87281Z" fill="#DCE5E5"/>
<path d="M51.7456 57.7778H55.0789C56.0313 52.5397 56.19 48.254 58.4123 49.0476C58.7297 46.9842 59.2059 46.1905 59.5234 45.3969C59.5234 45.3969 59.3646 45.3969 58.8885 45.3969C57.4599 45.3969 56.3488 47.3016 56.3488 47.3016L56.6662 45.5556" fill="#DCE5E5"/>
<path d="M70.476 48.5715C70.476 48.5715 71.9046 47.9365 73.9681 47.9365C75.0792 47.9365 76.0316 48.0953 76.0316 49.0476C76.0316 49.6826 75.8728 49.8413 75.8728 49.8413C75.8728 49.8413 74.9205 49.8413 74.4443 49.8413C71.7459 49.8413 68.73 50.9524 68.73 54.6032C68.73 57.4603 70.6347 58.0952 71.7459 58.0952C73.9681 58.0952 74.9205 56.6667 75.0792 56.6667L74.9205 57.9365H77.7776L79.0474 49.2064C79.0474 45.5556 75.8728 45.3969 74.603 45.3969L70.476 48.5715ZM76.9839 52.2222C76.9839 52.6984 75.0792 55.2381 73.1744 55.2381C72.222 55.2381 71.9046 54.4445 71.9046 53.9683C71.9046 53.1746 72.3808 52.0635 74.7617 52.0635C75.3966 52.2222 76.9839 52.2222 76.9839 52.2222Z" fill="#DCE5E5"/>
<path d="M78.4126 57.7778H81.7459C82.6983 52.5397 82.857 48.254 85.0793 49.0476C85.3967 46.9842 85.8729 46.1905 86.1904 45.3969C86.1904 45.3969 86.0316 45.3969 85.5555 45.3969C84.1269 45.3969 83.0158 47.3016 83.0158 47.3016L83.3332 45.5556" fill="#DCE5E5"/>
</svg>
