<svg width="8" height="14" viewBox="0 0 8 14" fill="none" xmlns="http://www.w3.org/2000/svg">
<path d="M4 0C1.794 0 0 1.794 0 4C0 4.13261 0.0526785 4.25979 0.146447 4.35355C0.240215 4.44732 0.367392 4.5 0.5 4.5C0.632608 4.5 0.759785 4.44732 0.853553 4.35355C0.947321 4.25979 1 4.13261 1 4C1 2.346 2.346 1 4 1C5.654 1 7 2.346 7 4C7 5.249 6.308 5.863 5.425 6.62L5.393 6.647C4.534 7.384 3.5 8.27 3.5 10V10.5C3.5 10.6326 3.55268 10.7598 3.64645 10.8536C3.74021 10.9473 3.86739 11 4 11C4.13261 11 4.25979 10.9473 4.35355 10.8536C4.44732 10.7598 4.5 10.6326 4.5 10.5V10C4.5 8.751 5.192 8.137 6.075 7.38L6.107 7.353C6.966 6.615 8 5.731 8 4C8 1.794 6.206 0 4 0Z" fill="#6B6B6B"/>
<path d="M4 14C4.19891 14 4.38968 13.921 4.53033 13.7803C4.67098 13.6397 4.75 13.4489 4.75 13.25C4.75 13.0511 4.67098 12.8603 4.53033 12.7197C4.38968 12.579 4.19891 12.5 4 12.5C3.80109 12.5 3.61032 12.579 3.46967 12.7197C3.32902 12.8603 3.25 13.0511 3.25 13.25C3.25 13.4489 3.32902 13.6397 3.46967 13.7803C3.61032 13.921 3.80109 14 4 14Z" fill="#6B6B6B"/>
</svg>
