<svg width="28" height="30" viewBox="0 0 28 30" fill="none" xmlns="http://www.w3.org/2000/svg">
<path d="M27.1438 7.52393C25.4317 7.52393 23.852 6.95674 22.5834 5.9999C21.1285 4.90303 20.0832 3.29404 19.7141 1.43955C19.6227 0.981348 19.5735 0.508496 19.5688 0.0239258H14.6779V13.388L14.6721 20.7081C14.6721 22.6651 13.3977 24.3245 11.6311 24.9081C11.1184 25.0774 10.5647 25.1577 9.9881 25.1261C9.25216 25.0856 8.56251 24.8636 7.9631 24.505C6.68751 23.7421 5.82267 22.3581 5.79923 20.7749C5.76232 18.3005 7.76271 16.2831 10.2354 16.2831C10.7235 16.2831 11.1922 16.3628 11.6311 16.5075V12.8548V11.5417C11.1682 11.4731 10.6971 11.4374 10.2207 11.4374C7.51427 11.4374 4.98302 12.5624 3.17365 14.5892C1.80607 16.1208 0.985755 18.0749 0.859192 20.1239C0.693372 22.8157 1.67833 25.3745 3.58849 27.2624C3.86915 27.5395 4.16388 27.7968 4.47208 28.0341C6.10978 29.2944 8.11193 29.9776 10.2207 29.9776C10.6971 29.9776 11.1682 29.9425 11.6311 29.8739C13.601 29.5821 15.4186 28.6804 16.8529 27.2624C18.6154 25.5204 19.5893 23.2077 19.5998 20.7462L19.5746 9.81494C20.4154 10.4636 21.3348 11.0003 22.3215 11.4169C23.8561 12.0644 25.4832 12.3925 27.1578 12.3919V8.84053V7.52275C27.159 7.52392 27.1449 7.52393 27.1438 7.52393Z" fill="#7B7B7B"/>
</svg>
