<svg width="40" height="40" viewBox="0 0 40 40" fill="none" xmlns="http://www.w3.org/2000/svg">
<path d="M20.0018 0C8.9739 0 0.0019989 8.97171 0.0019989 19.9994C0.0019989 31.0279 8.9739 40 20.0018 40C31.0295 40 40.0012 31.0277 40.0012 19.9994C40.0012 8.97171 31.0295 0 20.0018 0ZM20.0018 37.133C10.5548 37.133 2.86897 29.4469 2.86897 19.9994C2.86897 10.5526 10.5548 2.86697 20.0018 2.86697C29.4487 2.86697 37.1343 10.5526 37.1343 19.9994C37.1343 29.4469 29.4487 37.133 20.0018 37.133Z" fill="#1F1F1F"/>
<path d="M30.2839 19.6647H20.8852V9.39101C20.8852 8.59934 20.2436 7.95752 19.4517 7.95752C18.66 7.95752 18.0182 8.59934 18.0182 9.39101V21.0982C18.0182 21.8899 18.66 22.5317 19.4517 22.5317H30.2839C31.0757 22.5317 31.7174 21.8899 31.7174 21.0982C31.7174 20.3065 31.0755 19.6647 30.2839 19.6647Z" fill="#1F1F1F"/>
</svg>
