<svg width="100" height="100" viewBox="0 0 100 100" fill="none" xmlns="http://www.w3.org/2000/svg">
<path d="M36.9336 64.3651L41.9114 35.7937H49.6891L44.8669 64.3651H36.9336Z" fill="#CBD6FF"/>
<path d="M36.9336 64.3651L43.3114 35.7937H49.6891L44.8669 64.3651H36.9336Z" fill="#94A3FF"/>
<path d="M73.0222 36.1111C71.4666 35.4762 68.9777 34.8413 65.8666 34.8413C58.0888 34.8413 52.4888 38.8096 52.4888 44.5238C52.4888 48.8096 56.3777 51.0318 59.4888 52.4604C62.5999 53.8889 63.5333 54.8413 63.5333 56.1111C63.5333 58.0159 61.0444 58.9683 58.8666 58.9683C55.7555 58.9683 54.0444 58.4921 51.3999 57.381L50.3111 56.9048L49.2222 63.4127C51.0888 64.2064 54.5111 65 58.0888 65C66.3333 65 71.7777 61.0318 71.7777 55C71.7777 51.6667 69.7555 49.127 65.0888 47.0635C62.2888 45.635 60.5777 44.8413 60.5777 43.4127C60.5777 42.1429 61.9777 40.8731 65.0888 40.8731C67.7333 40.8731 69.5999 41.3492 70.9999 41.9842L71.7777 42.3016L73.0222 36.1111Z" fill="#CBD6FF"/>
<path d="M73.0222 36.1111C71.4666 35.4762 68.9777 34.8413 65.8666 34.8413C58.0888 34.8413 53.8888 38.8096 53.8888 44.5238C53.8888 48.8096 56.3777 51.0318 59.4888 52.4604C62.5999 53.8889 63.5333 54.8413 63.5333 56.1111C63.5333 58.0159 61.0444 58.9683 58.8666 58.9683C55.7555 58.9683 54.0444 58.4921 51.3999 57.381L50.3111 56.9048L49.2222 63.4127C51.0888 64.2064 54.5111 65 58.0888 65C66.3333 65 71.7777 61.0318 71.7777 55C71.7777 51.6667 69.7555 49.127 65.0888 47.0635C62.2888 45.635 60.5777 44.8413 60.5777 43.4127C60.5777 42.1429 61.9777 40.8731 65.0888 40.8731C67.7333 40.8731 69.5999 41.3492 70.9999 41.9842L71.7777 42.3016L73.0222 36.1111Z" fill="#94A3FF"/>
<path d="M86.4001 35.7937C84.5334 35.7937 83.1334 35.9524 82.3556 37.8572L70.689 64.3651H79.089L80.6445 59.6032H90.6001L91.5334 64.3651H99.0001L92.4667 35.7937H86.4001ZM82.8223 54.8413C83.289 53.4127 85.9334 46.4286 85.9334 46.4286C85.9334 46.4286 86.5556 44.6826 87.0223 43.5715L87.489 46.2699C87.489 46.2699 89.0445 53.4127 89.3556 55H82.8223V54.8413Z" fill="#CBD6FF"/>
<path d="M88.2667 35.7937C86.4001 35.7937 85.0001 35.9524 84.2223 37.8572L70.689 64.3651H79.089L80.6445 59.6032H90.6001L91.5334 64.3651H99.0001L92.4667 35.7937H88.2667ZM82.8223 54.8413C83.4445 53.254 85.9334 46.4286 85.9334 46.4286C85.9334 46.4286 86.5556 44.6826 87.0223 43.5715L87.489 46.2699C87.489 46.2699 89.0445 53.4127 89.3556 55H82.8223V54.8413Z" fill="#94A3FF"/>
<path d="M22.6222 55.7937L21.8445 51.6667C20.4445 46.9048 15.9333 41.6667 10.9556 39.127L17.9556 64.5238H26.3556L38.9556 35.9524H30.5556L22.6222 55.7937Z" fill="#CBD6FF"/>
<path d="M22.6222 55.7937L21.8445 51.6667C20.4445 46.9048 15.9333 41.6667 10.9556 39.127L17.9556 64.5238H26.3556L38.9556 35.9524H32.1111L22.6222 55.7937Z" fill="#94A3FF"/>
<path d="M1 35.7937L2.4 36.1112C12.3556 38.4921 19.2 44.5239 21.8444 51.6667L19.0444 38.1747C18.5778 36.2699 17.1778 35.7937 15.4667 35.7937H1Z" fill="#FFBC00"/>
<path d="M1 35.7937C10.9556 38.1747 19.2 44.3651 21.8444 51.508L19.2 40.2381C18.7333 38.3334 17.1778 37.2223 15.4667 37.2223L1 35.7937Z" fill="#F7981D"/>
<path d="M1 35.7937C10.9556 38.1747 19.2 44.3651 21.8444 51.508L19.9778 45.3175C19.5111 43.4127 18.8889 41.508 16.7111 40.7143L1 35.7937Z" fill="#ED7C00"/>
<path d="M30.4002 54.8413L25.1113 49.4445L22.6224 55.4762L22.0002 51.5079C20.6002 46.746 16.0891 41.5079 11.1113 38.9683L18.1113 64.3651H26.5113L30.4002 54.8413Z" fill="#5F79DD"/>
<path d="M44.8669 64.3652L38.178 57.3811L36.9336 64.3652H44.8669Z" fill="#5F79DD"/>
<path d="M62.756 54.5238C63.3782 55.1587 63.6893 55.6349 63.5338 56.2698C63.5338 58.1746 61.0449 59.127 58.8671 59.127C55.756 59.127 54.0449 58.6508 51.4004 57.5397L50.3115 57.0635L49.2227 63.5714C51.0893 64.3651 54.5115 65.1587 58.0893 65.1587C63.0671 65.1587 67.1115 63.7302 69.4449 61.1905L62.756 54.5238Z" fill="#5F79DD"/>
<path d="M71.7778 64.3649H79.0889L80.6445 59.603H90.6L91.5334 64.3649H99L96.3556 52.7776L87.0223 43.5713L87.4889 46.111C87.4889 46.111 89.0445 53.2538 89.3556 54.8411H82.8223C83.4445 53.2538 85.9334 46.4284 85.9334 46.4284C85.9334 46.4284 86.5556 44.6824 87.0223 43.5713" fill="#5F79DD"/>
</svg>
