<svg width="30" height="21" viewBox="0 0 30 21" fill="none" xmlns="http://www.w3.org/2000/svg">
<path d="M28.4683 3.97097C28.1442 2.76608 27.1942 1.81628 25.9895 1.49184C23.7887 0.889648 14.985 0.889648 14.985 0.889648C14.985 0.889648 6.1817 0.889648 3.98083 1.46901C2.79928 1.7931 1.82613 2.76625 1.50204 3.97097C0.922852 6.17167 0.922852 10.7356 0.922852 10.7356C0.922852 10.7356 0.922852 15.3226 1.50204 17.5003C1.82648 18.705 2.77611 19.6548 3.981 19.9792C6.20487 20.5816 14.9853 20.5816 14.9853 20.5816C14.9853 20.5816 23.7887 20.5816 25.9895 20.0022C27.1944 19.678 28.1442 18.7282 28.4687 17.5235C29.0477 15.3226 29.0477 10.7588 29.0477 10.7588C29.0477 10.7588 29.0708 6.17167 28.4683 3.97097ZM12.1821 14.952V6.51928L19.5028 10.7356L12.1821 14.952Z" fill="#7B7B7B"/>
</svg>
