<svg width="50" height="50" viewBox="0 0 50 50" fill="none" xmlns="http://www.w3.org/2000/svg">
<path d="M43.8702 31.082C43.2461 31.082 42.7403 31.591 42.7403 32.219V42.3145C42.7381 44.1977 41.2221 45.7238 39.3509 45.7255H7.64913C5.77785 45.7238 4.26186 44.1977 4.25965 42.3145V12.6851C4.26186 10.8023 5.77785 9.27625 7.64913 9.27403H17.6807C18.3048 9.27403 18.8106 8.76504 18.8106 8.13701C18.8106 7.50944 18.3048 7 17.6807 7H7.64913C4.53063 7.00355 2.00353 9.54673 2 12.6851V42.3149C2.00353 45.4533 4.53063 47.9964 7.64913 48H39.3509C42.4694 47.9964 44.9965 45.4533 45 42.3149V32.219C45 31.591 44.4942 31.082 43.8702 31.082Z" fill="black"/>
<path d="M45.1145 3.52762C43.0775 1.49079 39.775 1.49079 37.738 3.52762L17.0591 24.2047C16.9174 24.3464 16.8151 24.522 16.7616 24.7149L14.0423 34.5314C13.9305 34.9339 14.0441 35.3649 14.3393 35.6605C14.635 35.9557 15.066 36.0693 15.4685 35.958L25.2859 33.2384C25.4788 33.185 25.6545 33.0827 25.7962 32.941L46.4746 12.2635C48.5085 10.2253 48.5085 6.92581 46.4746 4.88762L45.1145 3.52762ZM19.5846 24.958L36.5087 8.03499L41.9668 13.4926L25.0423 30.4157L19.5846 24.958ZM18.4944 27.1456L22.855 31.5063L16.8232 33.1773L18.4944 27.1456ZM44.8356 10.6246L43.6063 11.8538L38.1477 6.39566L39.3775 5.1665C40.5089 4.03513 42.3436 4.03513 43.475 5.1665L44.8356 6.5265C45.9653 7.65923 45.9653 9.49233 44.8356 10.6246Z" fill="black"/>
</svg>
