<svg width="50" height="50" viewBox="0 0 50 50" fill="none" xmlns="http://www.w3.org/2000/svg">
<g clip-path="url(#clip0)">
<path d="M24.7796 50C24.5066 50 24.24 49.8917 24.0421 49.6959C23.7962 49.45 23.6879 49.0959 23.7566 48.7563L25.2296 41.3917C25.2712 41.1875 25.3671 41.0021 25.515 40.8584L41.7191 24.6542C42.9358 23.4375 44.9212 23.4375 46.1379 24.6542L49.0837 27.6C50.3025 28.8188 50.3025 30.8 49.0837 32.0188L32.8796 48.2229C32.7358 48.3688 32.5504 48.4667 32.3462 48.5084L24.9816 49.9813C24.915 49.9938 24.8462 50 24.7796 50ZM27.2129 42.1063L26.1087 47.6292L31.6316 46.525L47.6129 30.5438C48.0191 30.1375 48.0191 29.4771 47.6129 29.0709L44.6671 26.125C44.2608 25.7188 43.6004 25.7188 43.1941 26.125L27.2129 42.1063ZM32.1441 47.4854H32.165H32.1441Z" fill="black"/>
<path d="M19.7917 43.75H5.20833C2.33542 43.75 0 41.4146 0 38.5417V11.4583C0 8.58542 2.33542 6.25 5.20833 6.25H9.375C9.95 6.25 10.4167 6.71667 10.4167 7.29167C10.4167 7.86667 9.95 8.33333 9.375 8.33333H5.20833C3.48542 8.33333 2.08333 9.73542 2.08333 11.4583V38.5417C2.08333 40.2646 3.48542 41.6667 5.20833 41.6667H19.7917C20.3667 41.6667 20.8333 42.1333 20.8333 42.7083C20.8333 43.2833 20.3667 43.75 19.7917 43.75Z" fill="black"/>
<path d="M34.375 25C33.8 25 33.3333 24.5333 33.3333 23.9583V11.4583C33.3333 9.73542 31.9312 8.33333 30.2083 8.33333H26.0417C25.4667 8.33333 25 7.86667 25 7.29167C25 6.71667 25.4667 6.25 26.0417 6.25H30.2083C33.0812 6.25 35.4167 8.58542 35.4167 11.4583V23.9583C35.4167 24.5333 34.95 25 34.375 25Z" fill="black"/>
<path d="M23.959 12.5H11.459C9.73607 12.5 8.33398 11.0979 8.33398 9.375V5.20833C8.33398 4.63333 8.80065 4.16667 9.37565 4.16667H12.6048C13.0882 1.79167 15.1944 0 17.709 0C20.2236 0 22.3298 1.79167 22.8131 4.16667H26.0423C26.6173 4.16667 27.084 4.63333 27.084 5.20833V9.375C27.084 11.0979 25.6819 12.5 23.959 12.5ZM10.4173 6.25V9.375C10.4173 9.94792 10.8861 10.4167 11.459 10.4167H23.959C24.5319 10.4167 25.0006 9.94792 25.0006 9.375V6.25H21.8756C21.3006 6.25 20.834 5.78333 20.834 5.20833C20.834 3.48542 19.4319 2.08333 17.709 2.08333C15.9861 2.08333 14.584 3.48542 14.584 5.20833C14.584 5.78333 14.1173 6.25 13.5423 6.25H10.4173Z" fill="black"/>
<path d="M28.125 18.7501H7.29167C6.71667 18.7501 6.25 18.2834 6.25 17.7084C6.25 17.1334 6.71667 16.6667 7.29167 16.6667H28.125C28.7 16.6667 29.1667 17.1334 29.1667 17.7084C29.1667 18.2834 28.7 18.7501 28.125 18.7501Z" fill="black"/>
<path d="M28.125 25.0001H7.29167C6.71667 25.0001 6.25 24.5334 6.25 23.9584C6.25 23.3834 6.71667 22.9167 7.29167 22.9167H28.125C28.7 22.9167 29.1667 23.3834 29.1667 23.9584C29.1667 24.5334 28.7 25.0001 28.125 25.0001Z" fill="black"/>
<path d="M28.125 31.2501H7.29167C6.71667 31.2501 6.25 30.7834 6.25 30.2084C6.25 29.6334 6.71667 29.1667 7.29167 29.1667H28.125C28.7 29.1667 29.1667 29.6334 29.1667 30.2084C29.1667 30.7834 28.7 31.2501 28.125 31.2501Z" fill="black"/>
</g>
<defs>
<clipPath id="clip0">
<rect width="50" height="50" fill="white"/>
</clipPath>
</defs>
</svg>
