<svg width="44" height="48" viewBox="0 0 44 48" fill="none" xmlns="http://www.w3.org/2000/svg">
<path d="M0.125 43.5312C0.127441 45.6876 1.8749 47.4351 4.03125 47.4375H32.9375C38.9776 47.4381 43.8746 42.5421 43.8752 36.502C43.8756 32.277 41.4424 28.4297 37.625 26.6192V10.7188C37.625 10.5115 37.5427 10.3128 37.3962 10.1663L28.0212 0.791309C27.8747 0.644824 27.676 0.5625 27.4688 0.5625H4.03125C1.8749 0.564941 0.127441 2.3124 0.125 4.46875V43.5312ZM42.3125 36.5C42.3125 41.6776 38.1151 45.875 32.9375 45.875C27.7599 45.875 23.5625 41.6776 23.5625 36.5C23.5625 31.3224 27.7599 27.125 32.9375 27.125C38.1128 27.1309 42.3066 31.3247 42.3125 36.5ZM28.25 3.22979L34.9577 9.9375H30.5938C29.2999 9.93604 28.2515 8.8876 28.25 7.59375V3.22979ZM1.6875 4.46875C1.68896 3.175 2.7375 2.12646 4.03125 2.125H26.6875V7.59375C26.6899 9.7501 28.4374 11.4976 30.5938 11.5H36.0625V26.0182C30.2749 24.2913 24.1833 27.5831 22.4563 33.3706C21.0279 38.158 23.0255 43.3047 27.3095 45.875H4.03125C2.7375 45.8735 1.68896 44.825 1.6875 43.5312V4.46875Z" fill="black"/>
<path d="M12.625 15.4062C12.625 15.8377 12.9748 16.1875 13.4062 16.1875H32.1562C32.5877 16.1875 32.9375 15.8377 32.9375 15.4062C32.9375 14.9748 32.5877 14.625 32.1562 14.625H13.4062C12.9748 14.625 12.625 14.9748 12.625 15.4062Z" fill="black"/>
<path d="M5.59375 20.875H21.2188C21.6502 20.875 22 20.5252 22 20.0938C22 19.6623 21.6502 19.3125 21.2188 19.3125H5.59375C5.1623 19.3125 4.8125 19.6623 4.8125 20.0938C4.8125 20.5252 5.1623 20.875 5.59375 20.875Z" fill="black"/>
<path d="M24.3438 24H18.0938C17.6623 24 17.3125 24.3498 17.3125 24.7812C17.3125 25.2127 17.6623 25.5625 18.0938 25.5625H24.3438C24.7752 25.5625 25.125 25.2127 25.125 24.7812C25.125 24.3498 24.7752 24 24.3438 24Z" fill="black"/>
<path d="M5.59375 30.25H19.6562C20.0877 30.25 20.4375 29.9002 20.4375 29.4688C20.4375 29.0373 20.0877 28.6875 19.6562 28.6875H5.59375C5.1623 28.6875 4.8125 29.0373 4.8125 29.4688C4.8125 29.9002 5.1623 30.25 5.59375 30.25Z" fill="black"/>
<path d="M5.59375 16.1875H10.2812C10.7127 16.1875 11.0625 15.8377 11.0625 15.4062C11.0625 14.9748 10.7127 14.625 10.2812 14.625H5.59375C5.1623 14.625 4.8125 14.9748 4.8125 15.4062C4.8125 15.8377 5.1623 16.1875 5.59375 16.1875Z" fill="black"/>
<path d="M32.1562 19.3125H24.3438C23.9123 19.3125 23.5625 19.6623 23.5625 20.0938C23.5625 20.5252 23.9123 20.875 24.3438 20.875H32.1562C32.5877 20.875 32.9375 20.5252 32.9375 20.0938C32.9375 19.6623 32.5877 19.3125 32.1562 19.3125Z" fill="black"/>
<path d="M5.59375 25.5625H14.9688C15.4002 25.5625 15.75 25.2127 15.75 24.7812C15.75 24.3498 15.4002 24 14.9688 24H5.59375C5.1623 24 4.8125 24.3498 4.8125 24.7812C4.8125 25.2127 5.1623 25.5625 5.59375 25.5625Z" fill="black"/>
<path d="M18.0938 38.0625H14.9688C14.5373 38.0625 14.1875 38.4123 14.1875 38.8438C14.1875 39.2752 14.5373 39.625 14.9688 39.625H18.0938C18.5252 39.625 18.875 39.2752 18.875 38.8438C18.875 38.4123 18.5252 38.0625 18.0938 38.0625Z" fill="black"/>
<path d="M5.59375 39.625H11.8438C12.2752 39.625 12.625 39.2752 12.625 38.8438C12.625 38.4123 12.2752 38.0625 11.8438 38.0625H5.59375C5.1623 38.0625 4.8125 38.4123 4.8125 38.8438C4.8125 39.2752 5.1623 39.625 5.59375 39.625Z" fill="black"/>
<path d="M5.59375 34.9375H10.2812C10.7127 34.9375 11.0625 34.5877 11.0625 34.1562C11.0625 33.7248 10.7127 33.375 10.2812 33.375H5.59375C5.1623 33.375 4.8125 33.7248 4.8125 34.1562C4.8125 34.5877 5.1623 34.9375 5.59375 34.9375Z" fill="black"/>
<path d="M5.59375 11.5H14.9688C15.4002 11.5 15.75 11.1502 15.75 10.7188C15.75 10.2873 15.4002 9.9375 14.9688 9.9375H5.59375C5.1623 9.9375 4.8125 10.2873 4.8125 10.7188C4.8125 11.1502 5.1623 11.5 5.59375 11.5Z" fill="black"/>
<path d="M18.0938 33.375H13.4062C12.9748 33.375 12.625 33.7248 12.625 34.1562C12.625 34.5877 12.9748 34.9375 13.4062 34.9375H18.0938C18.5252 34.9375 18.875 34.5877 18.875 34.1562C18.875 33.7248 18.5252 33.375 18.0938 33.375Z" fill="black"/>
<path d="M28.5312 31.2116C28.1997 31.4878 28.1549 31.9805 28.431 32.3119C28.431 32.3119 28.431 32.312 28.4311 32.312C28.4311 32.312 31.3933 35.8715 32.3345 36.996C32.4293 37.1094 32.5841 37.2413 32.8551 37.2763C32.8824 37.2798 32.91 37.2806 32.9376 37.2806H38.4063C38.8378 37.2806 39.1876 36.9308 39.1876 36.4993C39.1876 36.0679 38.8378 35.7181 38.4063 35.7181H33.3035L29.6316 31.3116C29.3554 30.9802 28.8628 30.9354 28.5312 31.2116Z" fill="black"/>
</svg>
