<svg width="50" height="50" viewBox="0 0 50 50" fill="none" xmlns="http://www.w3.org/2000/svg">
<g clip-path="url(#clip0)">
<path d="M49.541 0.458199C48.9301 -0.152733 47.9426 -0.152733 47.3317 0.458199L0.475778 47.3141C-0.135155 47.925 -0.135155 48.9125 0.475778 49.5234C0.780463 49.8281 1.18046 49.9812 1.58046 49.9812C1.98045 49.9812 2.37889 49.8297 2.68514 49.5234L49.541 2.66756C50.152 2.05662 50.152 1.06913 49.541 0.458199Z" fill="black"/>
<path d="M10.9515 0.0178223C4.91402 0.0178223 0 4.92872 0 10.9646C0 17.0021 4.91402 21.9145 10.9515 21.9145C16.9874 21.9145 21.8998 17.0036 21.8998 10.9646C21.8998 4.92872 16.9874 0.0178223 10.9515 0.0178223ZM10.9515 18.7911C6.63588 18.7911 3.12498 15.2818 3.12498 10.9662C3.12498 6.65371 6.63588 3.14436 10.9515 3.14436C15.2655 3.14436 18.7749 6.65371 18.7749 10.9662C18.7749 15.2818 15.2655 18.7911 10.9515 18.7911Z" fill="black"/>
<path d="M39.0323 28.1001C32.9964 28.1001 28.084 33.0126 28.084 39.0484C28.084 45.0859 32.9964 49.9999 39.0323 49.9999C45.0698 49.9999 49.9807 45.0859 49.9807 39.0484C49.9807 33.0126 45.0682 28.1001 39.0323 28.1001ZM39.0323 46.875C34.7183 46.875 31.209 43.364 31.209 39.0484C31.209 34.7344 34.7183 31.2251 39.0323 31.2251C43.3464 31.2251 46.8557 34.7344 46.8557 39.0484C46.8557 43.364 43.3464 46.875 39.0323 46.875Z" fill="black"/>
</g>
<defs>
<clipPath id="clip0">
<rect width="50" height="50" fill="white"/>
</clipPath>
</defs>
</svg>
