<svg width="50" height="50" viewBox="0 0 50 50" fill="none" xmlns="http://www.w3.org/2000/svg">
<g clip-path="url(#clip0)">
<path d="M46.875 12.5H3.125C1.40208 12.5 0 11.0979 0 9.375V3.125C0 1.40208 1.40208 0 3.125 0H46.875C48.5979 0 50 1.40208 50 3.125V9.375C50 11.0979 48.5979 12.5 46.875 12.5ZM3.125 2.08333C2.55208 2.08333 2.08333 2.55 2.08333 3.125V9.375C2.08333 9.95 2.55208 10.4167 3.125 10.4167H46.875C47.4479 10.4167 47.9167 9.95 47.9167 9.375V3.125C47.9167 2.55 47.4479 2.08333 46.875 2.08333H3.125Z" fill="black"/>
<path d="M48.959 18.7501H28.1257C27.5507 18.7501 27.084 18.2834 27.084 17.7084C27.084 17.1334 27.5507 16.6667 28.1257 16.6667H48.959C49.534 16.6667 50.0007 17.1334 50.0007 17.7084C50.0007 18.2834 49.534 18.7501 48.959 18.7501Z" fill="black"/>
<path d="M48.959 25.0001H28.1257C27.5507 25.0001 27.084 24.5334 27.084 23.9584C27.084 23.3834 27.5507 22.9167 28.1257 22.9167H48.959C49.534 22.9167 50.0007 23.3834 50.0007 23.9584C50.0007 24.5334 49.534 25.0001 48.959 25.0001Z" fill="black"/>
<path d="M48.959 31.2501H28.1257C27.5507 31.2501 27.084 30.7834 27.084 30.2084C27.084 29.6334 27.5507 29.1667 28.1257 29.1667H48.959C49.534 29.1667 50.0007 29.6334 50.0007 30.2084C50.0007 30.7834 49.534 31.2501 48.959 31.2501Z" fill="black"/>
<path d="M48.959 37.5001H28.1257C27.5507 37.5001 27.084 37.0334 27.084 36.4584C27.084 35.8834 27.5507 35.4167 28.1257 35.4167H48.959C49.534 35.4167 50.0007 35.8834 50.0007 36.4584C50.0007 37.0334 49.534 37.5001 48.959 37.5001Z" fill="black"/>
<path d="M48.959 43.7503H28.1257C27.5507 43.7503 27.084 43.2837 27.084 42.7087C27.084 42.1337 27.5507 41.667 28.1257 41.667H48.959C49.534 41.667 50.0007 42.1337 50.0007 42.7087C50.0007 43.2837 49.534 43.7503 48.959 43.7503Z" fill="black"/>
<path d="M19.7917 31.2501H3.125C1.40208 31.2501 0 29.848 0 28.1251V19.7917C0 18.0688 1.40208 16.6667 3.125 16.6667H19.7917C21.5146 16.6667 22.9167 18.0688 22.9167 19.7917V28.1251C22.9167 29.848 21.5146 31.2501 19.7917 31.2501ZM3.125 18.7501C2.55208 18.7501 2.08333 19.2167 2.08333 19.7917V28.1251C2.08333 28.7001 2.55208 29.1668 3.125 29.1668H19.7917C20.3646 29.1668 20.8333 28.7001 20.8333 28.1251V19.7917C20.8333 19.2167 20.3646 18.7501 19.7917 18.7501H3.125Z" fill="black"/>
<path d="M19.7917 50.0001H3.125C1.40208 50.0001 0 48.598 0 46.8751V38.5417C0 36.8188 1.40208 35.4167 3.125 35.4167H19.7917C21.5146 35.4167 22.9167 36.8188 22.9167 38.5417V46.8751C22.9167 48.598 21.5146 50.0001 19.7917 50.0001ZM3.125 37.5001C2.55208 37.5001 2.08333 37.9667 2.08333 38.5417V46.8751C2.08333 47.4501 2.55208 47.9167 3.125 47.9167H19.7917C20.3646 47.9167 20.8333 47.4501 20.8333 46.8751V38.5417C20.8333 37.9667 20.3646 37.5001 19.7917 37.5001H3.125Z" fill="black"/>
<path d="M48.959 50.0003H28.1257C27.5507 50.0003 27.084 49.5337 27.084 48.9587C27.084 48.3837 27.5507 47.917 28.1257 47.917H48.959C49.534 47.917 50.0007 48.3837 50.0007 48.9587C50.0007 49.5337 49.534 50.0003 48.959 50.0003Z" fill="black"/>
</g>
<defs>
<clipPath id="clip0">
<rect width="50" height="50" fill="white"/>
</clipPath>
</defs>
</svg>
