<svg width="50" height="50" viewBox="0 0 50 50" fill="none" xmlns="http://www.w3.org/2000/svg">
<path d="M49.6512 17.962L44.0651 3.43816C43.0066 0.692568 39.9227 -0.675023 37.1771 0.383502C37.1372 0.398903 37.0975 0.414721 37.0579 0.431059L9.14252 12.0028C6.48445 13.0932 5.17805 16.1019 6.1963 18.7885L6.96387 20.8373H5.20313C2.3309 20.8405 0.00322594 23.1682 0 26.0404V44.7717C0.00322594 47.6439 2.3309 49.9716 5.20313 49.9748H40.5844C43.4566 49.9716 45.7843 47.6439 45.7875 44.7717V26.0404C45.7859 25.758 45.7608 25.4762 45.7126 25.198L46.6792 24.8067C49.361 23.7075 50.679 20.672 49.6512 17.962ZM5.20313 22.5024H40.5844C42.453 22.5077 43.9943 23.967 44.1017 25.8324H1.68581C1.79321 23.9669 3.33458 22.5076 5.20313 22.5024ZM13.5706 17.4874L19.135 14.7044L20.2789 17.5657L14.7145 20.3479L13.5706 17.4874ZM44.1225 44.7718C44.1203 46.725 42.5376 48.3077 40.5844 48.3099H5.20313C3.24998 48.3077 1.66729 46.725 1.665 44.7718V34.1574H44.1225V44.7718ZM44.1225 32.4924H1.665V27.4974H44.1225V32.4924ZM46.0548 23.2683L45.1848 23.6205C44.2862 21.9113 42.5154 20.8401 40.5844 20.8374H17.4592L21.7091 18.712C22.0967 18.5186 22.2712 18.0603 22.1104 17.6581L20.3447 13.2458C20.1739 12.819 19.6895 12.6113 19.2626 12.7819C19.2411 12.7906 19.2199 12.8 19.1992 12.8104L12.1405 16.3419C11.7532 16.5357 11.5792 16.9939 11.74 17.3959L13.117 20.8374H8.74126L7.75558 18.2084C7.0568 16.3625 7.95434 14.2958 9.78022 13.5464L37.6948 1.97462C39.561 1.20081 41.7011 2.08628 42.475 3.95243C42.4871 3.98147 42.4988 4.01071 42.51 4.04005L48.0961 18.5639C48.8028 20.4261 47.8975 22.5123 46.0548 23.2683Z" fill="black"/>
<path d="M29.9476 45.968C31.499 46.8693 33.4146 46.8693 34.966 45.968C37.3513 47.3538 40.4085 46.5435 41.7943 44.1582C43.1801 41.7728 42.3697 38.7157 39.9844 37.3299C39.2188 36.8851 38.3489 36.6518 37.4635 36.6539C36.5858 36.6543 35.724 36.8875 34.966 37.3299C32.5807 35.9441 29.5235 36.7543 28.1377 39.1396C26.7519 41.5251 27.5623 44.5821 29.9476 45.968ZM36.3579 38.5221C36.7121 38.3916 37.0861 38.323 37.4635 38.319C39.3026 38.319 40.7935 39.8099 40.7935 41.649C40.7935 43.4881 39.3026 44.979 37.4635 44.979C37.0861 44.9751 36.7121 44.9064 36.3579 44.7759C37.8319 42.9518 37.8319 40.3462 36.3579 38.5221ZM34.966 39.4695C36.076 40.7106 36.076 42.5875 34.966 43.8285C33.856 42.5875 33.856 40.7105 34.966 39.4695ZM32.4685 38.319C32.8459 38.3229 33.2199 38.3916 33.5741 38.5221C32.1001 40.3462 32.1001 42.9519 33.5741 44.7759C33.2199 44.9064 32.8459 44.9751 32.4685 44.979C30.6294 44.979 29.1385 43.4881 29.1385 41.649C29.1385 39.8098 30.6294 38.319 32.4685 38.319Z" fill="black"/>
<path d="M35.1166 17.2056L35.793 18.7271L43.7351 15.1966L43.0588 13.6752L35.1166 17.2056Z" fill="black"/>
<path d="M41.2862 10.1506L29.8145 15.4456L30.5119 16.9566L41.9836 11.6617L41.2862 10.1506Z" fill="black"/>
</svg>
