<svg width="50" height="50" viewBox="0 0 50 50" fill="none" xmlns="http://www.w3.org/2000/svg">
<path d="M46.875 0.585938H3.125C2.45184 0.586713 1.80647 0.854469 1.33047 1.33047C0.854469 1.80647 0.586713 2.45184 0.585938 3.125V37.5C0.586713 38.1732 0.854469 38.8185 1.33047 39.2945C1.80647 39.7705 2.45184 40.0383 3.125 40.0391H20.378L19.7134 45.3546C18.0907 45.9377 16.5379 46.6991 15.0833 47.625C14.9089 47.7413 14.7766 47.9106 14.7058 48.1078C14.6351 48.3051 14.6297 48.5199 14.6904 48.7205C14.7512 48.9211 14.8748 49.0968 15.0431 49.2217C15.2114 49.3466 15.4154 49.414 15.625 49.4141H34.375C34.5846 49.414 34.7886 49.3466 34.9569 49.2217C35.1252 49.0968 35.2488 48.9211 35.3096 48.7205C35.3703 48.5199 35.3649 48.3051 35.2942 48.1078C35.2234 47.9106 35.0911 47.7413 34.9167 47.625C33.4621 46.6991 31.9093 45.9377 30.2866 45.3546L29.622 40.0391H46.875C47.5482 40.0383 48.1935 39.7705 48.6695 39.2945C49.1455 38.8185 49.4133 38.1732 49.4141 37.5V3.125C49.4133 2.45184 49.1455 1.80647 48.6695 1.33047C48.1935 0.854469 47.5482 0.586713 46.875 0.585938ZM3.125 2.53906H46.875C47.0304 2.53922 47.1793 2.601 47.2891 2.71085C47.399 2.8207 47.4608 2.96965 47.4609 3.125V30.2734H2.53906V3.125C2.53922 2.96965 2.601 2.8207 2.71085 2.71085C2.8207 2.601 2.96965 2.53922 3.125 2.53906ZM20.3125 47.4609H19.6752C21.2272 46.8366 23.1233 46.2891 25 46.2891C26.8699 46.2891 28.7652 46.8366 30.3183 47.4609H20.3125ZM28.2422 44.7422C26.115 44.2005 23.886 44.2005 21.7588 44.7422L22.3464 40.0391H27.6536L28.2422 44.7422ZM47.4609 37.5C47.4608 37.6554 47.399 37.8043 47.2891 37.9141C47.1793 38.024 47.0304 38.0858 46.875 38.0859H3.125C2.96965 38.0858 2.8207 38.024 2.71085 37.9141C2.601 37.8043 2.53922 37.6554 2.53906 37.5V32.2266H47.4609V37.5Z" fill="black"/>
<path d="M23.4375 36.1328H26.5625C26.8215 36.1328 27.0699 36.0299 27.253 35.8468C27.4362 35.6636 27.5391 35.4153 27.5391 35.1562C27.5391 34.8972 27.4362 34.6489 27.253 34.4657C27.0699 34.2826 26.8215 34.1797 26.5625 34.1797H23.4375C23.1785 34.1797 22.9301 34.2826 22.747 34.4657C22.5638 34.6489 22.4609 34.8972 22.4609 35.1562C22.4609 35.4153 22.5638 35.6636 22.747 35.8468C22.9301 36.0299 23.1785 36.1328 23.4375 36.1328Z" fill="black"/>
<path d="M10.1562 7.22656H12.5773L17.0423 20.6213C17.0754 20.7209 17.1245 20.8145 17.1875 20.8984C16.5747 20.8976 15.9821 21.1181 15.519 21.5194C15.0558 21.9208 14.7532 22.4758 14.6668 23.0826C14.5804 23.6893 14.7161 24.3068 15.0488 24.8214C15.3815 25.3361 15.8889 25.7132 16.4776 25.8835C17.0663 26.0538 17.6967 26.0057 18.2528 25.748C18.8088 25.4904 19.2532 25.0407 19.5039 24.4815C19.7547 23.9223 19.7951 23.2914 19.6177 22.7048C19.4402 22.1182 19.0569 21.6155 18.5382 21.2891H26.6888C26.6704 21.482 26.6602 21.6773 26.6602 21.875C26.6602 23.0918 27.021 24.2813 27.697 25.2931C28.373 26.3048 29.3339 27.0934 30.4581 27.559C31.5823 28.0247 32.8193 28.1465 34.0128 27.9091C35.2062 27.6717 36.3024 27.0858 37.1629 26.2254C38.0233 25.3649 38.6092 24.2687 38.8466 23.0753C39.084 21.8818 38.9622 20.6448 38.4965 19.5206C38.0309 18.3964 37.2423 17.4355 36.2306 16.7595C35.2188 16.0835 34.0293 15.7227 32.8125 15.7227C32.6185 15.7227 32.4269 15.7324 32.2373 15.7504L33.739 11.2464C33.7879 11.0996 33.8013 10.9432 33.7779 10.7903C33.7546 10.6373 33.6953 10.492 33.6048 10.3665C33.5143 10.241 33.3953 10.1387 33.2575 10.0682C33.1198 9.9977 32.9672 9.96093 32.8125 9.96094H20.3125C20.0535 9.96094 19.8051 10.0638 19.622 10.247C19.4388 10.4301 19.3359 10.6785 19.3359 10.9375C19.3359 11.1965 19.4388 11.4449 19.622 11.628C19.8051 11.8112 20.0535 11.9141 20.3125 11.9141H31.4575L30.5446 14.6522C30.5195 14.6503 30.4943 14.6484 30.4688 14.6484H21.875C21.616 14.6484 21.3676 14.7513 21.1845 14.9345C21.0013 15.1176 20.8984 15.366 20.8984 15.625C20.8984 15.884 21.0013 16.1324 21.1845 16.3155C21.3676 16.4987 21.616 16.6016 21.875 16.6016H29.6474C28.578 17.2465 27.7287 18.1996 27.2107 19.3359H18.6727L14.2077 5.94121C14.1429 5.74676 14.0185 5.57763 13.8523 5.45778C13.686 5.33793 13.4862 5.27344 13.2812 5.27344H10.1562C9.89725 5.27344 9.64886 5.37633 9.46572 5.55947C9.28258 5.74261 9.17969 5.991 9.17969 6.25C9.17969 6.509 9.28258 6.75739 9.46572 6.94053C9.64886 7.12367 9.89725 7.22656 10.1562 7.22656ZM17.1875 24.0234C17.0716 24.0234 16.9583 23.9891 16.862 23.9247C16.7656 23.8603 16.6905 23.7688 16.6462 23.6617C16.6018 23.5547 16.5902 23.4368 16.6128 23.3232C16.6354 23.2095 16.6912 23.1051 16.7732 23.0232C16.8551 22.9412 16.9595 22.8854 17.0732 22.8628C17.1868 22.8402 17.3047 22.8518 17.4117 22.8962C17.5188 22.9405 17.6103 23.0156 17.6747 23.112C17.7391 23.2083 17.7734 23.3216 17.7734 23.4375C17.7733 23.5928 17.7115 23.7418 17.6016 23.8516C17.4918 23.9615 17.3429 24.0233 17.1875 24.0234ZM37.0117 21.875C37.0117 22.7055 36.7654 23.5174 36.304 24.208C35.8426 24.8985 35.1868 25.4367 34.4195 25.7546C33.6522 26.0724 32.8078 26.1556 31.9933 25.9935C31.1787 25.8315 30.4305 25.4316 29.8432 24.8443C29.2559 24.257 28.856 23.5088 28.694 22.6942C28.5319 21.8797 28.6151 21.0353 28.9329 20.268C29.2508 19.5007 29.789 18.8449 30.4795 18.3835C31.1701 17.9221 31.982 17.6758 32.8125 17.6758C33.9258 17.677 34.9932 18.1199 35.7804 18.9071C36.5676 19.6943 37.0105 20.7617 37.0117 21.875Z" fill="black"/>
<path d="M30.8135 22.7489L32.376 23.5301C32.5889 23.6365 32.8334 23.6615 33.0634 23.6004C33.2934 23.5392 33.4932 23.3962 33.6252 23.1981L35.1877 20.8543C35.3286 20.6388 35.3786 20.3764 35.327 20.1242C35.2753 19.872 35.1262 19.6504 34.912 19.5075C34.6978 19.3647 34.4358 19.3123 34.1832 19.3616C33.9305 19.4109 33.7075 19.558 33.5627 19.7709L32.4787 21.3974L31.6877 21.0017C31.4564 20.8883 31.1895 20.8709 30.9454 20.9533C30.7013 21.0357 30.4996 21.2113 30.3844 21.4418C30.2691 21.6723 30.2496 21.939 30.3302 22.1837C30.4107 22.4285 30.5847 22.6315 30.8143 22.7486L30.8135 22.7489Z" fill="black"/>
</svg>
