<svg width="50" height="50" viewBox="0 0 50 50" fill="none" xmlns="http://www.w3.org/2000/svg">
<g clip-path="url(#clip0)">
<path d="M25 35.4168C24.1375 35.4168 23.4375 34.7168 23.4375 33.8543V1.5625C23.4375 0.699997 24.1375 0 25 0C25.8625 0 26.5625 0.699997 26.5625 1.5625V33.8543C26.5625 34.7168 25.8625 35.4168 25 35.4168Z" fill="white"/>
<path d="M25.0008 35.4169C24.6006 35.4169 24.2009 35.2647 23.8964 34.9584L15.5632 26.6252C14.9529 26.0148 14.9529 25.0253 15.5632 24.4146C16.1736 23.8042 17.1631 23.8042 17.7738 24.4146L25.0027 31.6438L32.2319 24.4146C32.8423 23.8042 33.8322 23.8042 34.4426 24.4146C35.0529 25.0253 35.0529 26.0148 34.4426 26.6252L26.109 34.9584C25.8007 35.2647 25.401 35.4169 25.0008 35.4169Z" fill="white"/>
<path d="M44.2707 49.9998H5.72929C2.56882 49.9998 0 47.431 0 44.2705V34.8955C0 34.033 0.699997 33.333 1.5625 33.333C2.425 33.333 3.125 34.033 3.125 34.8955V44.2705C3.125 45.706 4.29382 46.8748 5.72929 46.8748H44.2707C45.7062 46.8748 46.875 45.706 46.875 44.2705V34.8955C46.875 34.033 47.575 33.333 48.4375 33.333C49.3 33.333 50 34.033 50 34.8955V44.2705C50 47.431 47.4312 49.9998 44.2707 49.9998Z" fill="white"/>
</g>
<defs>
<clipPath id="clip0">
<rect width="50" height="50" fill="white"/>
</clipPath>
</defs>
</svg>
