<svg width="20" height="20" viewBox="0 0 20 20" fill="none" xmlns="http://www.w3.org/2000/svg">
<path d="M10.0019 0C4.4879 0 0.00195312 4.48586 0.00195312 9.99971C0.00195312 15.514 4.4879 20 10.0019 20C15.5157 20 20.0016 15.5139 20.0016 9.99971C20.0016 4.48586 15.5157 0 10.0019 0ZM10.0019 18.5665C5.27833 18.5665 1.43544 14.7234 1.43544 9.99971C1.43544 5.27628 5.27833 1.43349 10.0019 1.43349C14.7253 1.43349 18.5681 5.27628 18.5681 9.99971C18.5681 14.7234 14.7253 18.5665 10.0019 18.5665Z" fill="black"/>
<path d="M15.1426 9.83235H10.4433V4.6955C10.4433 4.29967 10.1224 3.97876 9.72651 3.97876C9.33068 3.97876 9.00977 4.29967 9.00977 4.6955V10.5491C9.00977 10.9449 9.33068 11.2658 9.72651 11.2658H15.1426C15.5385 11.2658 15.8593 10.9449 15.8593 10.5491C15.8593 10.1533 15.5384 9.83235 15.1426 9.83235Z" fill="black"/>
</svg>
