<svg width="14" height="20" viewBox="0 0 14 20" fill="none" xmlns="http://www.w3.org/2000/svg">
<path d="M6.99948 0C3.38548 0 0.445312 2.93824 0.445312 6.54988C0.445312 10.0209 6.40164 19.413 6.65519 19.8111C6.73013 19.9287 6.85997 20 6.99948 20C7.13899 20 7.26882 19.9287 7.34372 19.8111C7.59727 19.413 13.5536 10.0209 13.5536 6.54988C13.5536 2.93824 10.6134 0 6.99948 0ZM6.99948 18.8215C6.46041 17.9496 5.36646 16.1445 4.28319 14.1444C2.3065 10.4947 1.26168 7.86861 1.26168 6.54988C1.26164 3.38837 3.83564 0.816326 6.99948 0.816326C10.1633 0.816326 12.7372 3.38837 12.7372 6.54988C12.7372 7.86861 11.6924 10.4947 9.71572 14.1444C8.63246 16.1444 7.5385 17.9496 6.99948 18.8215Z" fill="#C8102E"/>
<path d="M6.99881 3.10522C5.28925 3.10522 3.89844 4.45825 3.89844 6.12131C3.89844 7.78433 5.28925 9.13727 6.99881 9.13727C8.70836 9.13727 10.0992 7.78433 10.0992 6.12131C10.0992 4.45825 8.70836 3.10522 6.99881 3.10522ZM6.99881 8.3209C5.73942 8.3209 4.71476 7.33416 4.71476 6.12127C4.71476 4.90833 5.73942 3.92151 6.99881 3.92151C8.25819 3.92151 9.28285 4.90833 9.28285 6.12127C9.28285 7.33416 8.25823 8.3209 6.99881 8.3209Z" fill="#C8102E"/>
</svg>
