<svg width="20" height="20" viewBox="0 0 20 20" fill="none" xmlns="http://www.w3.org/2000/svg">
<path d="M15.8054 12.3899C15.396 11.9636 14.9021 11.7356 14.3787 11.7356C13.8595 11.7356 13.3614 11.9594 12.9351 12.3857L11.6012 13.7154C11.4914 13.6563 11.3817 13.6014 11.2761 13.5465C11.1242 13.4705 10.9807 13.3988 10.8583 13.3228C9.6088 12.5292 8.47331 11.495 7.38426 10.1569C6.85662 9.48999 6.50204 8.92858 6.24455 8.35873C6.59069 8.04214 6.91149 7.71289 7.22386 7.39631C7.34205 7.27812 7.46024 7.1557 7.57843 7.03751C8.46487 6.15107 8.46487 5.00293 7.57843 4.11649L6.42606 2.96412C6.29521 2.83326 6.16013 2.69819 6.0335 2.56311C5.78023 2.3014 5.5143 2.03125 5.23992 1.77798C4.83047 1.37275 4.34082 1.15747 3.82584 1.15747C3.31086 1.15747 2.81277 1.37275 2.39066 1.77798C2.38644 1.7822 2.38644 1.7822 2.38221 1.78642L0.947028 3.23427C0.406722 3.77458 0.0985794 4.43307 0.0310412 5.1971C-0.0702661 6.42967 0.292752 7.57782 0.571347 8.32918C1.25517 10.1738 2.27669 11.8834 3.80052 13.7154C5.64937 15.923 7.87391 17.6663 10.415 18.8947C11.3859 19.3548 12.6818 19.8993 14.1296 19.9922C14.2183 19.9964 14.3111 20.0006 14.3956 20.0006C15.3707 20.0006 16.1896 19.6503 16.8312 18.9538C16.8354 18.9453 16.8438 18.9411 16.8481 18.9327C17.0676 18.6667 17.3208 18.4261 17.5868 18.1686C17.7683 17.9956 17.954 17.8141 18.1355 17.6241C18.5534 17.1893 18.7729 16.6828 18.7729 16.1636C18.7729 15.6402 18.5492 15.1379 18.1228 14.7158L15.8054 12.3899ZM17.3166 16.8348C17.3124 16.8348 17.3124 16.839 17.3166 16.8348C17.152 17.0121 16.9831 17.1725 16.8016 17.3497C16.5272 17.6115 16.2486 17.8858 15.9869 18.194C15.5606 18.6499 15.0583 18.8651 14.3998 18.8651C14.3365 18.8651 14.2689 18.8651 14.2056 18.8609C12.9519 18.7807 11.7869 18.2911 10.9131 17.8732C8.52397 16.7166 6.42606 15.0746 4.68273 12.9935C3.24333 11.2586 2.28091 9.65462 1.64352 7.93239C1.25095 6.88133 1.10743 6.06243 1.17075 5.28996C1.21296 4.79609 1.40291 4.38664 1.75327 4.03629L3.19267 2.59688C3.39951 2.40271 3.61901 2.29718 3.83429 2.29718C4.10022 2.29718 4.3155 2.45758 4.45057 2.59266C4.45479 2.59688 4.45901 2.6011 4.46323 2.60532C4.72072 2.84593 4.96555 3.09497 5.22304 3.3609C5.35389 3.49598 5.48897 3.63106 5.62405 3.77035L6.77642 4.92272C7.22386 5.37016 7.22386 5.78384 6.77642 6.23128C6.65401 6.35369 6.53581 6.4761 6.4134 6.59429C6.05882 6.95731 5.72113 7.295 5.3539 7.62425C5.34545 7.63269 5.33701 7.63691 5.33279 7.64536C4.96977 8.00837 5.03731 8.36295 5.11329 8.60355C5.11751 8.61622 5.12173 8.62888 5.12595 8.64154C5.42565 9.36758 5.84777 10.0514 6.48938 10.8661L6.4936 10.8703C7.65864 12.3055 8.88699 13.4241 10.242 14.281C10.415 14.3907 10.5923 14.4794 10.7612 14.5638C10.9131 14.6398 11.0567 14.7115 11.1791 14.7875C11.1959 14.796 11.2128 14.8086 11.2297 14.8171C11.3732 14.8888 11.5083 14.9226 11.6476 14.9226C11.998 14.9226 12.2175 14.7031 12.2892 14.6313L13.7329 13.1877C13.8764 13.0442 14.1043 12.8711 14.3702 12.8711C14.632 12.8711 14.8472 13.0357 14.9781 13.1793C14.9823 13.1835 14.9823 13.1835 14.9865 13.1877L17.3124 15.5136C17.7472 15.9441 17.7472 16.3873 17.3166 16.8348Z" fill="#C8102E"/>
<path d="M10.807 4.75716C11.9129 4.94289 12.9175 5.46631 13.7195 6.26833C14.5216 7.07034 15.0408 8.07497 15.2307 9.18091C15.2771 9.45951 15.5177 9.65368 15.7921 9.65368C15.8259 9.65368 15.8554 9.64946 15.8892 9.64524C16.2016 9.59458 16.4084 9.2991 16.3577 8.98674C16.1298 7.64864 15.4966 6.42873 14.53 5.46209C13.5634 4.49545 12.3434 3.86228 11.0053 3.63434C10.693 3.58368 10.4017 3.79052 10.3468 4.09866C10.292 4.40681 10.4946 4.70651 10.807 4.75716Z" fill="#C8102E"/>
<path d="M19.9756 8.82242C19.6 6.61899 18.5616 4.61395 16.966 3.01836C15.3704 1.42277 13.3653 0.384369 11.1619 0.00868772C10.8538 -0.0461871 10.5625 0.16487 10.5076 0.473013C10.457 0.785377 10.6638 1.07664 10.9762 1.13151C12.9432 1.46498 14.7372 2.39785 16.1639 3.82037C17.5907 5.24712 18.5193 7.0411 18.8528 9.00815C18.8992 9.28675 19.1398 9.48092 19.4142 9.48092C19.448 9.48092 19.4775 9.4767 19.5113 9.47248C19.8195 9.42604 20.0305 9.13056 19.9756 8.82242Z" fill="#C8102E"/>
</svg>
