<svg width="20" height="10" viewBox="0 0 20 10" fill="none" xmlns="http://www.w3.org/2000/svg">
<path d="M0.229143 5.55301C0.229375 5.55325 0.229572 5.55352 0.229845 5.55375L4.31203 9.61625C4.61785 9.92059 5.1125 9.91946 5.41692 9.6136C5.72129 9.30778 5.72012 8.81313 5.4143 8.50875L2.67352 5.78125L19.2187 5.78125C19.6502 5.78125 20 5.43149 20 5C20 4.56852 19.6502 4.21875 19.2187 4.21875L2.67355 4.21875L5.41426 1.49125C5.72008 1.18688 5.72125 0.692231 5.41688 0.38641C5.11246 0.0805124 4.61777 0.0794577 4.31199 0.383754L0.229806 4.44626C0.229572 4.44649 0.229375 4.44676 0.229103 4.447C-0.0768742 4.75239 -0.0758976 5.24864 0.229143 5.55301Z" fill="black"/>
</svg>
