<svg width="33" height="30" viewBox="0 0 33 30" fill="none" xmlns="http://www.w3.org/2000/svg">
<g clip-path="url(#clip0)">
<path d="M9.87537 22.0496C7.90189 22.0496 6.30222 23.6492 6.30222 25.6227C6.30222 27.5959 7.90189 29.1956 9.87537 29.1956C11.8486 29.1956 13.4483 27.5959 13.4483 25.6227C13.4462 23.6503 11.8478 22.0516 9.87537 22.0496ZM9.87537 27.882C8.62745 27.882 7.61582 26.8704 7.61582 25.6227C7.61582 24.3748 8.62745 23.3632 9.87537 23.3632C11.123 23.3632 12.1347 24.3748 12.1347 25.6227C12.1347 26.8704 11.123 27.882 9.87537 27.882Z" fill="#929292"/>
<path d="M29.3496 7.05494H6.1578L5.68495 4.40798C5.39349 2.77855 4.11632 1.50394 2.48638 1.21582L0.772023 0.913845C0.41463 0.850217 0.0736579 1.08856 0.0100302 1.4457C-0.0533409 1.80309 0.18475 2.14407 0.542142 2.20769L2.26291 2.50967C3.34869 2.70209 4.19868 3.55208 4.3911 4.63786L6.71608 17.7541C6.9906 19.3235 8.35423 20.4683 9.94749 20.4668H23.7403C25.1894 20.4711 26.4691 19.5226 26.8866 18.1351L29.9735 7.90211C30.0307 7.70251 29.9946 7.48751 29.875 7.31766C29.7501 7.1532 29.5558 7.05622 29.3496 7.05494ZM25.632 17.7475C25.3841 18.5808 24.6162 19.1509 23.747 19.1465H9.95416C8.99744 19.1491 8.17849 18.4607 8.0166 17.5176L6.39435 8.36187H28.4693L25.632 17.7475Z" fill="#929292"/>
<path d="M23.6682 22.0496C21.6947 22.0496 20.095 23.6492 20.095 25.6227C20.095 27.5959 21.6947 29.1956 23.6682 29.1956C25.6414 29.1956 27.2411 27.5959 27.2411 25.6227C27.239 23.6503 25.6406 22.0516 23.6682 22.0496ZM23.6682 27.882C22.4203 27.882 21.4086 26.8704 21.4086 25.6227C21.4086 24.3748 22.4203 23.3632 23.6682 23.3632C24.9159 23.3632 25.9275 24.3748 25.9275 25.6227C25.9275 26.8704 24.9159 27.882 23.6682 27.882Z" fill="#929292"/>
</g>
<circle cx="28" cy="7" r="5" fill="#00D115"/>
<path d="M27.25 8.0499L26.2 6.9999L25.85 7.3499L27.25 8.7499L30.25 5.7499L29.9 5.3999L27.25 8.0499Z" fill="white"/>
<defs>
<clipPath id="clip0">
<rect width="30" height="30" fill="white"/>
</clipPath>
</defs>
</svg>
