<svg width="30" height="30" viewBox="0 0 30 30" fill="none" xmlns="http://www.w3.org/2000/svg">
<g clip-path="url(#clip0)">
<path d="M9.87538 22.0496C7.90189 22.0496 6.30222 23.6492 6.30222 25.6227C6.30222 27.5959 7.90189 29.1956 9.87538 29.1956C11.8486 29.1956 13.4483 27.5959 13.4483 25.6227C13.4462 23.6503 11.8478 22.0516 9.87538 22.0496ZM9.87538 27.882C8.62746 27.882 7.61583 26.8704 7.61583 25.6227C7.61583 24.3748 8.62746 23.3632 9.87538 23.3632C11.123 23.3632 12.1347 24.3748 12.1347 25.6227C12.1347 26.8704 11.123 27.882 9.87538 27.882Z" fill="black"/>
<path d="M29.3495 7.05494H6.15778L5.68494 4.40798C5.39348 2.77855 4.11631 1.50394 2.48636 1.21582L0.772007 0.913845C0.414615 0.850217 0.0736426 1.08856 0.010015 1.4457C-0.0533561 1.80309 0.184735 2.14407 0.542127 2.20769L2.2629 2.50967C3.34867 2.70209 4.19866 3.55208 4.39109 4.63786L6.71606 17.7541C6.99058 19.3235 8.35422 20.4683 9.94747 20.4668H23.7403C25.1894 20.4711 26.4691 19.5226 26.8865 18.1351L29.9735 7.90211C30.0307 7.70251 29.9945 7.48751 29.875 7.31766C29.75 7.1532 29.5558 7.05622 29.3495 7.05494ZM25.6319 17.7475C25.3841 18.5808 24.6162 19.1509 23.747 19.1465H9.95415C8.99742 19.1491 8.17847 18.4607 8.01658 17.5176L6.39433 8.36187H28.4693L25.6319 17.7475Z" fill="black"/>
<path d="M23.6682 22.0496C21.6947 22.0496 20.095 23.6492 20.095 25.6227C20.095 27.5959 21.6947 29.1956 23.6682 29.1956C25.6414 29.1956 27.2411 27.5959 27.2411 25.6227C27.239 23.6503 25.6407 22.0516 23.6682 22.0496ZM23.6682 27.882C22.4203 27.882 21.4087 26.8704 21.4087 25.6227C21.4087 24.3748 22.4203 23.3632 23.6682 23.3632C24.9159 23.3632 25.9275 24.3748 25.9275 25.6227C25.9275 26.8704 24.9159 27.882 23.6682 27.882Z" fill="black"/>
</g>
<defs>
<clipPath id="clip0">
<rect width="30" height="30" fill="white"/>
</clipPath>
</defs>
</svg>
