<svg width="25" height="23" viewBox="0 0 25 23" fill="none" xmlns="http://www.w3.org/2000/svg">
<path d="M24.9396 13.4449L21.3319 6.21593C21.411 6.11368 21.46 5.98688 21.46 5.84759C21.46 5.51337 21.189 5.24238 20.8548 5.24238H14.0379C14.3311 5.14749 14.5432 4.87263 14.5432 4.54788C14.5432 4.1446 14.2164 3.81775 13.8131 3.81775H13.5447C13.9428 3.50667 14.1998 3.02322 14.1998 2.47889C14.1998 1.54017 13.4388 0.779297 12.5002 0.779297C11.5614 0.779297 10.8006 1.54028 10.8006 2.47889C10.8006 3.02334 11.0575 3.50679 11.4557 3.81775H11.1871C10.7839 3.81775 10.457 4.1446 10.457 4.54788C10.457 4.87263 10.6692 5.14749 10.9623 5.24238H4.21452L4.21347 5.24027L4.21242 5.24238H4.14534C3.81112 5.24238 3.54013 5.51337 3.54013 5.84759C3.54013 6.00745 3.60335 6.15177 3.70455 6.25998L0.0605333 13.5618C0.00362299 13.6759 -0.0111012 13.7993 0.00794677 13.9162C0.00596017 13.9389 0.00490844 13.962 0.00724562 13.9855C0.21245 16.128 2.01734 17.8034 4.21347 17.8034C6.4096 17.8034 8.2146 16.128 8.41981 13.9855C8.42203 13.9619 8.42109 13.9389 8.41911 13.9161C8.43816 13.7993 8.42343 13.6759 8.36652 13.5618L4.81868 6.4528H11.6839V20.4104H6.0533C5.37586 20.4104 4.82675 20.9596 4.82675 21.637C4.82675 21.9599 5.08851 22.2216 5.41139 22.2216H19.5888C19.9117 22.2216 20.1735 21.9599 20.1735 21.637C20.1735 20.9596 19.6244 20.4104 18.9469 20.4104H13.3163V6.45268H20.1231L16.6336 13.4448C16.5767 13.5589 16.562 13.6824 16.581 13.7993C16.579 13.8219 16.578 13.845 16.5803 13.8686C16.7855 16.011 18.5904 17.6865 20.7865 17.6865C22.9828 17.6865 24.7877 16.011 24.9929 13.8686C24.9951 13.845 24.9942 13.8219 24.9922 13.7991C25.0112 13.6824 24.9965 13.559 24.9396 13.4449ZM1.35849 13.5777L4.21335 7.8571L7.06822 13.5777H1.35849ZM17.9317 13.4608L20.7865 7.74024L23.6414 13.4608H17.9317Z" fill="black"/>
</svg>
