<svg width="30" height="28" viewBox="0 0 30 28" fill="none" xmlns="http://www.w3.org/2000/svg">
<path d="M22.1875 0.25C18.8599 0.25 16.1115 3.34082 15 4.79957C13.8885 3.34082 11.1401 0.25 7.81248 0.25C3.50467 0.25 0 4.21059 0 9.07815C0 11.7338 1.0541 14.2087 2.89916 15.9025C2.926 15.9489 2.95898 15.9916 2.99742 16.0301L14.5587 27.5675C14.6808 27.689 14.8401 27.75 15 27.75C15.1599 27.75 15.3198 27.689 15.4419 27.5669L27.3877 15.6254L27.511 15.5058C27.6087 15.4136 27.7051 15.3202 27.8131 15.2006C27.8583 15.1561 27.8955 15.106 27.9242 15.0517C29.2639 13.411 30 11.2949 30 9.07815C30 4.21059 26.4954 0.25 22.1875 0.25ZM26.8842 14.3485C26.8671 14.3687 26.8512 14.39 26.8372 14.412C26.7786 14.4791 26.7145 14.5383 26.651 14.5988L14.9994 26.2418L4.02346 15.2879C3.98807 15.2182 3.93861 15.1548 3.8782 15.1017C2.20764 13.643 1.24998 11.4475 1.24998 9.07815C1.24998 4.89965 4.19373 1.50004 7.81248 1.50004C11.3904 1.50004 14.4439 6.1668 14.4745 6.21379C14.7052 6.57022 15.2948 6.57022 15.5255 6.21379C15.5561 6.1668 18.6096 1.50004 22.1875 1.50004C25.8063 1.50004 28.75 4.89971 28.75 9.07815C28.75 11.0471 28.0871 12.9191 26.8842 14.3485Z" fill="#C8102E"/>
</svg>
