<svg width="25" height="23" viewBox="0 0 25 23" fill="none" xmlns="http://www.w3.org/2000/svg">
<path d="M18.4896 0.041748C15.7166 0.041748 13.4262 2.61743 12.5 3.83306C11.5738 2.61743 9.28345 0.041748 6.5104 0.041748C2.92056 0.041748 0 3.34224 0 7.39854C0 9.61157 0.878418 11.674 2.41597 13.0855C2.43833 13.1242 2.46582 13.1598 2.49785 13.1918L12.1323 22.8064C12.234 22.9076 12.3667 22.9585 12.5 22.9585C12.6333 22.9585 12.7665 22.9076 12.8683 22.8059L22.8231 12.8546L22.9258 12.7549C23.0072 12.6781 23.0876 12.6002 23.1776 12.5006C23.2152 12.4635 23.2462 12.4217 23.2702 12.3765C24.3866 11.0093 25 9.24585 25 7.39854C25 3.34224 22.0795 0.041748 18.4896 0.041748ZM22.4035 11.7905C22.3892 11.8073 22.376 11.8251 22.3643 11.8434C22.3155 11.8994 22.2621 11.9487 22.2092 11.9991L12.4995 21.7016L3.35288 12.5733C3.32339 12.5153 3.28218 12.4624 3.23184 12.4182C1.8397 11.2025 1.04165 9.373 1.04165 7.39854C1.04165 3.91646 3.49478 1.08345 6.5104 1.08345C9.49199 1.08345 12.0366 4.97241 12.0621 5.01157C12.2543 5.30859 12.7457 5.30859 12.9379 5.01157C12.9634 4.97241 15.508 1.08345 18.4896 1.08345C21.5052 1.08345 23.9583 3.9165 23.9583 7.39854C23.9583 9.03936 23.406 10.5993 22.4035 11.7905Z" fill="black"/>
</svg>
