<svg width="30" height="30" viewBox="0 0 30 30" fill="none" xmlns="http://www.w3.org/2000/svg">
<path d="M29.9983 20.7222C29.9984 20.7154 29.9991 20.7087 29.9991 20.7019C29.9991 20.7005 29.9989 20.699 29.9988 20.6974C29.9988 20.6864 29.998 20.6754 29.9971 20.6643C29.9967 20.6589 29.9965 20.6535 29.9959 20.6482C29.9949 20.6387 29.9932 20.6292 29.9916 20.6197C29.9904 20.6129 29.9894 20.606 29.9879 20.5993C29.9863 20.592 29.9842 20.5847 29.9823 20.5774C29.98 20.5687 29.9778 20.5599 29.975 20.5514C29.9732 20.5459 29.9709 20.5403 29.9689 20.5347C29.9653 20.5248 29.9616 20.515 29.9573 20.5054C29.9566 20.5039 29.9562 20.5024 29.9555 20.5008L24.8155 9.19276V7.71058H24.8479C25.4017 7.71058 25.8522 7.26006 25.8522 6.70626V6.62929C25.8522 6.13374 25.4971 5.71678 25.0079 5.6378L16.5218 4.26836V3.39823C16.8439 3.03726 17.0401 2.56173 17.0401 2.04104C17.0401 0.915616 16.1245 0 14.9991 0C13.8737 0 12.958 0.915616 12.958 2.04104C12.958 2.56173 13.1543 3.03726 13.4764 3.39823V4.22112L4.98511 5.63637C4.49889 5.71743 4.14596 6.13406 4.14596 6.62702V6.70626C4.14596 7.26006 4.59647 7.71058 5.15027 7.71058H5.18267V9.19276L0.0426303 20.5008C0.0419176 20.5023 0.041464 20.5039 0.0408161 20.5054C0.0366044 20.5149 0.0329111 20.5248 0.0292826 20.5346C0.0272092 20.5402 0.0250062 20.5458 0.0231271 20.5514C0.0203409 20.5599 0.0180731 20.5687 0.0158053 20.5774C0.0138614 20.5847 0.011788 20.592 0.0101681 20.5993C0.00874266 20.606 0.00770594 20.6129 0.00653963 20.6197C0.00491976 20.6292 0.0032351 20.6387 0.00219838 20.6482C0.00161523 20.6535 0.00142085 20.659 0.000967282 20.6644C0.000124949 20.6754 -0.000587794 20.6864 -0.000717383 20.6973C-0.000717383 20.6989 -0.000976562 20.7004 -0.000976562 20.7019C-0.000976562 20.7087 -0.00026382 20.7154 -0.000199025 20.7223C6.01544e-05 20.7277 -4.64049e-06 20.7332 0.000448923 20.7387C0.0307729 22.7375 2.50891 24.2981 5.66863 24.2981C8.82835 24.2981 11.3065 22.7375 11.3368 20.7387C11.3372 20.7333 11.3371 20.7278 11.3374 20.7223C11.3375 20.7155 11.3382 20.7088 11.3382 20.702C11.3382 20.7005 11.338 20.699 11.3379 20.6975C11.3379 20.6865 11.3371 20.6754 11.3362 20.6644C11.3358 20.659 11.3356 20.6536 11.335 20.6483C11.334 20.6388 11.3323 20.6293 11.3307 20.6198C11.3295 20.613 11.3285 20.6061 11.327 20.5994C11.3254 20.5921 11.3233 20.5848 11.3214 20.5775C11.3191 20.5687 11.3169 20.56 11.3141 20.5515C11.3123 20.5459 11.31 20.5403 11.308 20.5348C11.3044 20.5249 11.3007 20.5151 11.2964 20.5055C11.2957 20.504 11.2953 20.5024 11.2946 20.5009L6.15459 9.19276V7.71058H13.4764V18.2686C13.1677 18.4401 12.958 18.7693 12.958 19.1469V26.3058L9.87965 27.2678C9.24058 27.4676 8.81118 28.0516 8.81118 28.7212V29.514C8.81118 29.7824 9.0287 30 9.29714 30H20.701C20.9695 30 21.187 29.7824 21.187 29.514V28.7211C21.187 28.0516 20.7576 27.4675 20.1185 27.2677L17.0401 26.3058V19.1469C17.0401 18.7693 16.8305 18.4401 16.5218 18.2686V7.71058H23.8436V9.19276L18.7035 20.5009C18.7028 20.5024 18.7024 20.504 18.7017 20.5055C18.6975 20.515 18.6938 20.5249 18.6902 20.5347C18.6881 20.5403 18.6859 20.5459 18.684 20.5515C18.6812 20.56 18.679 20.5687 18.6767 20.5775C18.6748 20.5848 18.6727 20.5921 18.6711 20.5994C18.6696 20.6061 18.6686 20.613 18.6674 20.6198C18.6658 20.6293 18.6641 20.6388 18.6631 20.6483C18.6625 20.6536 18.6623 20.659 18.6619 20.6644C18.661 20.6754 18.6603 20.6865 18.6602 20.6974C18.6602 20.699 18.6599 20.7005 18.6599 20.7019C18.6599 20.7088 18.6606 20.7155 18.6607 20.7224C18.661 20.7278 18.6609 20.7333 18.6614 20.7387C18.6917 22.7375 21.1698 24.2981 24.3295 24.2981C27.4893 24.2981 29.9674 22.7375 29.9977 20.7387C29.9981 20.7332 29.998 20.7277 29.9983 20.7222ZM5.66863 10.4725L10.0975 20.216H1.23978L5.66863 10.4725ZM5.66863 23.3261C3.41844 23.3261 1.47693 22.3878 1.05563 21.1879H10.2817C9.86034 22.3878 7.91883 23.3261 5.66863 23.3261ZM16.0682 19.1469V26.1771H13.93V19.1469C13.93 19.129 13.9445 19.1145 13.9624 19.1145H16.0358C16.0536 19.1145 16.0682 19.129 16.0682 19.1469ZM14.4483 18.1425V4.00594C14.6237 4.05518 14.8083 4.08207 14.9991 4.08207C15.1899 4.08207 15.3745 4.05518 15.5498 4.00594V18.1425H14.4483ZM14.9991 0.971922C15.5886 0.971922 16.0682 1.45153 16.0682 2.04104C16.0682 2.63054 15.5886 3.11015 14.9991 3.11015C14.4096 3.11015 13.93 2.63054 13.93 2.04104C13.93 1.45153 14.4096 0.971922 14.9991 0.971922ZM5.15027 6.73866C5.13246 6.73866 5.11788 6.72415 5.11788 6.70626V6.62702C5.11788 6.61108 5.12928 6.59767 5.14496 6.59508L13.4764 5.20652V6.73866H5.15027ZM20.2151 28.7211V29.0281H9.7831V28.7211C9.7831 28.4789 9.93842 28.2676 10.1696 28.1955L13.5182 27.149H16.48L19.8286 28.1955C20.0598 28.2677 20.2151 28.4789 20.2151 28.7211ZM16.5218 5.25292L24.853 6.59734C24.8688 6.59987 24.8803 6.61335 24.8803 6.62935V6.70633C24.8803 6.72421 24.8657 6.73873 24.8479 6.73873H16.5218V5.25292ZM24.3295 10.4725L28.7584 20.216H19.9007L24.3295 10.4725ZM24.3295 23.3261C22.0793 23.3261 20.1378 22.3878 19.7165 21.1879H28.9426C28.5212 22.3878 26.5797 23.3261 24.3295 23.3261Z" fill="black"/>
</svg>
