<svg width="20" height="20" viewBox="0 0 20 20" fill="none" xmlns="http://www.w3.org/2000/svg">
<path d="M15.8054 12.389C15.396 11.9627 14.9021 11.7347 14.3787 11.7347C13.8595 11.7347 13.3614 11.9584 12.9351 12.3848L11.6012 13.7144C11.4914 13.6553 11.3817 13.6005 11.2761 13.5456C11.1242 13.4696 10.9807 13.3978 10.8583 13.3219C9.6088 12.5283 8.47331 11.4941 7.38426 10.156C6.85662 9.48907 6.50204 8.92766 6.24455 8.35781C6.59069 8.04123 6.91149 7.71198 7.22386 7.39539C7.34205 7.2772 7.46024 7.15479 7.57843 7.0366C8.46487 6.15016 8.46487 5.00201 7.57843 4.11557L6.42606 2.9632C6.29521 2.83235 6.16013 2.69727 6.0335 2.56219C5.78023 2.30048 5.5143 2.03033 5.23992 1.77706C4.83047 1.37183 4.34082 1.15656 3.82584 1.15656C3.31086 1.15656 2.81277 1.37183 2.39066 1.77706C2.38644 1.78128 2.38644 1.78128 2.38221 1.7855L0.947028 3.23335C0.406722 3.77366 0.0985794 4.43216 0.0310412 5.19618C-0.0702661 6.42875 0.292752 7.5769 0.571347 8.32826C1.25517 10.1729 2.27669 11.8825 3.80052 13.7144C5.64937 15.9221 7.87391 17.6654 10.415 18.8938C11.3859 19.3539 12.6818 19.8984 14.1296 19.9913C14.2183 19.9955 14.3111 19.9997 14.3956 19.9997C15.3707 19.9997 16.1896 19.6493 16.8312 18.9529C16.8354 18.9444 16.8438 18.9402 16.848 18.9318C17.0675 18.6658 17.3208 18.4252 17.5867 18.1677C17.7683 17.9947 17.954 17.8132 18.1355 17.6232C18.5534 17.1884 18.7729 16.6819 18.7729 16.1627C18.7729 15.6393 18.5492 15.137 18.1228 14.7148L15.8054 12.389ZM17.3166 16.8338C17.3124 16.8338 17.3124 16.8381 17.3166 16.8338C17.152 17.0111 16.9831 17.1715 16.8016 17.3488C16.5272 17.6105 16.2486 17.8849 15.9869 18.1931C15.5606 18.6489 15.0583 18.8642 14.3998 18.8642C14.3365 18.8642 14.2689 18.8642 14.2056 18.86C12.9519 18.7798 11.7869 18.2901 10.9131 17.8722C8.52397 16.7157 6.42606 15.0736 4.68273 12.9926C3.24333 11.2577 2.28091 9.6537 1.64352 7.93148C1.25095 6.88041 1.10743 6.06151 1.17075 5.28905C1.21296 4.79517 1.40291 4.38572 1.75327 4.03537L3.19267 2.59596C3.39951 2.40179 3.61901 2.29626 3.83429 2.29626C4.10022 2.29626 4.3155 2.45666 4.45057 2.59174C4.45479 2.59596 4.45901 2.60018 4.46323 2.6044C4.72072 2.84501 4.96555 3.09406 5.22304 3.35999C5.35389 3.49506 5.48897 3.63014 5.62405 3.76944L6.77642 4.92181C7.22386 5.36925 7.22386 5.78292 6.77642 6.23036C6.654 6.35277 6.53581 6.47518 6.4134 6.59338C6.05882 6.95639 5.72113 7.29409 5.35389 7.62333C5.34545 7.63178 5.33701 7.636 5.33279 7.64444C4.96977 8.00746 5.03731 8.36203 5.11329 8.60264C5.11751 8.6153 5.12173 8.62796 5.12595 8.64063C5.42565 9.36666 5.84777 10.0505 6.48938 10.8652L6.4936 10.8694C7.65864 12.3046 8.88699 13.4232 10.242 14.2801C10.415 14.3898 10.5923 14.4785 10.7612 14.5629C10.9131 14.6389 11.0566 14.7106 11.1791 14.7866C11.1959 14.795 11.2128 14.8077 11.2297 14.8161C11.3732 14.8879 11.5083 14.9217 11.6476 14.9217C11.998 14.9217 12.2175 14.7022 12.2892 14.6304L13.7329 13.1868C13.8764 13.0433 14.1043 12.8702 14.3702 12.8702C14.632 12.8702 14.8472 13.0348 14.9781 13.1783C14.9823 13.1826 14.9823 13.1826 14.9865 13.1868L17.3124 15.5126C17.7472 15.9432 17.7472 16.3864 17.3166 16.8338Z" fill="#6B6B6B"/>
<path d="M10.807 4.75746C11.9129 4.94319 12.9175 5.46661 13.7195 6.26862C14.5216 7.07064 15.0408 8.07527 15.2307 9.18121C15.2771 9.4598 15.5177 9.65398 15.7921 9.65398C15.8259 9.65398 15.8554 9.64976 15.8892 9.64553C16.2016 9.59488 16.4084 9.2994 16.3577 8.98704C16.1298 7.64894 15.4966 6.42903 14.53 5.46239C13.5634 4.49575 12.3434 3.86258 11.0053 3.63464C10.693 3.58398 10.4017 3.79082 10.3468 4.09896C10.292 4.4071 10.4946 4.7068 10.807 4.75746Z" fill="#6B6B6B"/>
<path d="M19.9756 8.82244C19.6 6.619 18.5616 4.61396 16.966 3.01837C15.3704 1.42278 13.3653 0.384384 11.1619 0.00870298C10.8538 -0.0461718 10.5625 0.164885 10.5076 0.473028C10.457 0.785392 10.6638 1.07665 10.9762 1.13153C12.9432 1.465 14.7372 2.39787 16.1639 3.82039C17.5907 5.24713 18.5193 7.04112 18.8528 9.00817C18.8992 9.28676 19.1398 9.48093 19.4142 9.48093C19.448 9.48093 19.4775 9.47671 19.5113 9.47249C19.8195 9.42606 20.0305 9.13058 19.9756 8.82244Z" fill="#6B6B6B"/>
</svg>
